<?xml version="1.0" encoding="utf-8" standalone="no"?>
<!DOCTYPE svg PUBLIC "-//W3C//DTD SVG 1.1//EN"
  "http://www.w3.org/Graphics/SVG/1.1/DTD/svg11.dtd">
<svg xmlns:xlink="http://www.w3.org/1999/xlink" width="576pt" height="324pt" viewBox="0 0 576 324" xmlns="http://www.w3.org/2000/svg" version="1.1">
 <metadata>
  <rdf:RDF xmlns:dc="http://purl.org/dc/elements/1.1/" xmlns:cc="http://creativecommons.org/ns#" xmlns:rdf="http://www.w3.org/1999/02/22-rdf-syntax-ns#">
   <cc:Work>
    <dc:type rdf:resource="http://purl.org/dc/dcmitype/StillImage"/>
    <dc:date>2026-01-13T13:49:45.096350</dc:date>
    <dc:format>image/svg+xml</dc:format>
    <dc:creator>
     <cc:Agent>
      <dc:title>Matplotlib v3.10.8, https://matplotlib.org/</dc:title>
     </cc:Agent>
    </dc:creator>
   </cc:Work>
  </rdf:RDF>
 </metadata>
 <defs>
  <style type="text/css">*{stroke-linejoin: round; stroke-linecap: butt}</style>
 </defs>
 <g id="figure_1">
  <g id="patch_1">
   <path d="M 0 324 
L 576 324 
L 576 0 
L 0 0 
z
" style="fill: #ffffff"/>
  </g>
  <g id="axes_1">
   <g id="patch_2">
    <path d="M 129.58 282.04 
L 554.13 282.04 
L 554.13 10.8 
L 129.58 10.8 
z
" style="fill: #ffffff"/>
   </g>
   <g id="patch_3">
    <path d="M 214.49 269.710909 
L 174.644617 269.710909 
L 174.644617 263.221914 
L 214.49 263.221914 
z
" clip-path="url(#p99e039835f)" style="fill: #003a7d"/>
   </g>
   <g id="patch_4">
    <path d="M 214.49 237.265933 
L 174.598145 237.265933 
L 174.598145 230.776938 
L 214.49 230.776938 
z
" clip-path="url(#p99e039835f)" style="fill: #003a7d"/>
   </g>
   <g id="patch_5">
    <path d="M 214.49 204.820957 
L 144.352396 204.820957 
L 144.352396 198.331962 
L 214.49 198.331962 
z
" clip-path="url(#p99e039835f)" style="fill: #003a7d"/>
   </g>
   <g id="patch_6">
    <path d="M 214.49 172.375981 
L 180.971568 172.375981 
L 180.971568 165.886986 
L 214.49 165.886986 
z
" clip-path="url(#p99e039835f)" style="fill: #003a7d"/>
   </g>
   <g id="patch_7">
    <path d="M 214.49 139.931005 
L 183.19217 139.931005 
L 183.19217 133.44201 
L 214.49 133.44201 
z
" clip-path="url(#p99e039835f)" style="fill: #003a7d"/>
   </g>
   <g id="patch_8">
    <path d="M 214.49 107.486029 
L 232.347324 107.486029 
L 232.347324 100.997033 
L 214.49 100.997033 
z
" clip-path="url(#p99e039835f)" style="fill: #003a7d"/>
   </g>
   <g id="patch_9">
    <path d="M 214.49 75.041053 
L 267.802794 75.041053 
L 267.802794 68.552057 
L 214.49 68.552057 
z
" clip-path="url(#p99e039835f)" style="fill: #003a7d"/>
   </g>
   <g id="patch_10">
    <path d="M 214.49 42.596077 
L 183.40303 42.596077 
L 183.40303 36.107081 
L 214.49 36.107081 
z
" clip-path="url(#p99e039835f)" style="fill: #003a7d"/>
   </g>
   <g id="patch_11">
    <path d="M 214.49 263.221914 
L 177.397033 263.221914 
L 177.397033 256.732919 
L 214.49 256.732919 
z
" clip-path="url(#p99e039835f)" style="fill: #4ecc8d"/>
   </g>
   <g id="patch_12">
    <path d="M 214.49 230.776938 
L 180.00495 230.776938 
L 180.00495 224.287943 
L 214.49 224.287943 
z
" clip-path="url(#p99e039835f)" style="fill: #4ecc8d"/>
   </g>
   <g id="patch_13">
    <path d="M 214.49 198.331962 
L 231.109438 198.331962 
L 231.109438 191.842967 
L 214.49 191.842967 
z
" clip-path="url(#p99e039835f)" style="fill: #4ecc8d"/>
   </g>
   <g id="patch_14">
    <path d="M 214.49 165.886986 
L 180.074865 165.886986 
L 180.074865 159.39799 
L 214.49 159.39799 
z
" clip-path="url(#p99e039835f)" style="fill: #4ecc8d"/>
   </g>
   <g id="patch_15">
    <path d="M 214.49 133.44201 
L 179.828205 133.44201 
L 179.828205 126.953014 
L 214.49 126.953014 
z
" clip-path="url(#p99e039835f)" style="fill: #4ecc8d"/>
   </g>
   <g id="patch_16">
    <path d="M 214.49 100.997033 
L 192.942107 100.997033 
L 192.942107 94.508038 
L 214.49 94.508038 
z
" clip-path="url(#p99e039835f)" style="fill: #4ecc8d"/>
   </g>
   <g id="patch_17">
    <path d="M 214.49 68.552057 
L 179.821025 68.552057 
L 179.821025 62.063062 
L 214.49 62.063062 
z
" clip-path="url(#p99e039835f)" style="fill: #4ecc8d"/>
   </g>
   <g id="patch_18">
    <path d="M 214.49 36.107081 
L 184.434709 36.107081 
L 184.434709 29.618086 
L 214.49 29.618086 
z
" clip-path="url(#p99e039835f)" style="fill: #4ecc8d"/>
   </g>
   <g id="patch_19">
    <path d="M 214.49 256.732919 
L 179.808383 256.732919 
L 179.808383 250.243923 
L 214.49 250.243923 
z
" clip-path="url(#p99e039835f)" style="fill: #c700ff"/>
   </g>
   <g id="patch_20">
    <path d="M 214.49 224.287943 
L 265.322465 224.287943 
L 265.322465 217.798947 
L 214.49 217.798947 
z
" clip-path="url(#p99e039835f)" style="fill: #c700ff"/>
   </g>
   <g id="patch_21">
    <path d="M 214.49 191.842967 
L 348.166714 191.842967 
L 348.166714 185.353971 
L 214.49 185.353971 
z
" clip-path="url(#p99e039835f)" style="fill: #c700ff"/>
   </g>
   <g id="patch_22">
    <path d="M 214.49 159.39799 
L 371.49447 159.39799 
L 371.49447 152.908995 
L 214.49 152.908995 
z
" clip-path="url(#p99e039835f)" style="fill: #c700ff"/>
   </g>
   <g id="patch_23">
    <path d="M 214.49 126.953014 
L 416.439201 126.953014 
L 416.439201 120.464019 
L 214.49 120.464019 
z
" clip-path="url(#p99e039835f)" style="fill: #c700ff"/>
   </g>
   <g id="patch_24">
    <path d="M 214.49 94.508038 
L 415.863436 94.508038 
L 415.863436 88.019043 
L 214.49 88.019043 
z
" clip-path="url(#p99e039835f)" style="fill: #c700ff"/>
   </g>
   <g id="patch_25">
    <path d="M 214.49 62.063062 
L 451.799445 62.063062 
L 451.799445 55.574067 
L 214.49 55.574067 
z
" clip-path="url(#p99e039835f)" style="fill: #c700ff"/>
   </g>
   <g id="patch_26">
    <path d="M 214.49 29.618086 
L 544.028125 29.618086 
L 544.028125 23.129091 
L 214.49 23.129091 
z
" clip-path="url(#p99e039835f)" style="fill: #c700ff"/>
   </g>
   <g id="patch_27">
    <path d="M -129.492507 282.04 
L 208.393451 282.04 
L 208.393451 10.8 
L -129.492507 10.8 
z
" clip-path="url(#p99e039835f)" style="fill: #7f7f7f; opacity: 0.25"/>
   </g>
   <g id="matplotlib.axis_1">
    <g id="xtick_1">
     <g id="line2d_1">
      <path d="M 146.562 282.04 
L 146.562 10.8 
" clip-path="url(#p99e039835f)" style="fill: none; stroke: #b0b0b0; stroke-opacity: 0.5; stroke-width: 0.8; stroke-linecap: square"/>
     </g>
     <g id="line2d_2">
      <defs>
       <path id="m90e77c568c" d="M 0 0 
L 0 3.5 
" style="stroke: #000000; stroke-width: 0.8"/>
      </defs>
      <g>
       <use xlink:href="#m90e77c568c" x="146.562" y="282.04" style="stroke: #000000; stroke-width: 0.8"/>
      </g>
     </g>
     <g id="text_1">
      <!-- −0.02 -->
      <g transform="translate(131.239344 296.638438) scale(0.1 -0.1)">
       <defs>
        <path id="DejaVuSans-2212" d="M 678 2272 
L 4684 2272 
L 4684 1741 
L 678 1741 
L 678 2272 
z
" transform="scale(0.015625)"/>
        <path id="DejaVuSans-30" d="M 2034 4250 
Q 1547 4250 1301 3770 
Q 1056 3291 1056 2328 
Q 1056 1369 1301 889 
Q 1547 409 2034 409 
Q 2525 409 2770 889 
Q 3016 1369 3016 2328 
Q 3016 3291 2770 3770 
Q 2525 4250 2034 4250 
z
M 2034 4750 
Q 2819 4750 3233 4129 
Q 3647 3509 3647 2328 
Q 3647 1150 3233 529 
Q 2819 -91 2034 -91 
Q 1250 -91 836 529 
Q 422 1150 422 2328 
Q 422 3509 836 4129 
Q 1250 4750 2034 4750 
z
" transform="scale(0.015625)"/>
        <path id="DejaVuSans-2e" d="M 684 794 
L 1344 794 
L 1344 0 
L 684 0 
L 684 794 
z
" transform="scale(0.015625)"/>
        <path id="DejaVuSans-32" d="M 1228 531 
L 3431 531 
L 3431 0 
L 469 0 
L 469 531 
Q 828 903 1448 1529 
Q 2069 2156 2228 2338 
Q 2531 2678 2651 2914 
Q 2772 3150 2772 3378 
Q 2772 3750 2511 3984 
Q 2250 4219 1831 4219 
Q 1534 4219 1204 4116 
Q 875 4013 500 3803 
L 500 4441 
Q 881 4594 1212 4672 
Q 1544 4750 1819 4750 
Q 2544 4750 2975 4387 
Q 3406 4025 3406 3419 
Q 3406 3131 3298 2873 
Q 3191 2616 2906 2266 
Q 2828 2175 2409 1742 
Q 1991 1309 1228 531 
z
" transform="scale(0.015625)"/>
       </defs>
       <use xlink:href="#DejaVuSans-2212"/>
       <use xlink:href="#DejaVuSans-30" transform="translate(83.789062 0)"/>
       <use xlink:href="#DejaVuSans-2e" transform="translate(147.412109 0)"/>
       <use xlink:href="#DejaVuSans-30" transform="translate(179.199219 0)"/>
       <use xlink:href="#DejaVuSans-32" transform="translate(242.822266 0)"/>
      </g>
     </g>
    </g>
    <g id="xtick_2">
     <g id="line2d_3">
      <path d="M 214.49 282.04 
L 214.49 10.8 
" clip-path="url(#p99e039835f)" style="fill: none; stroke: #b0b0b0; stroke-opacity: 0.5; stroke-width: 0.8; stroke-linecap: square"/>
     </g>
     <g id="line2d_4">
      <g>
       <use xlink:href="#m90e77c568c" x="214.49" y="282.04" style="stroke: #000000; stroke-width: 0.8"/>
      </g>
     </g>
     <g id="text_2">
      <!-- 0.00 -->
      <g transform="translate(203.357187 296.638438) scale(0.1 -0.1)">
       <use xlink:href="#DejaVuSans-30"/>
       <use xlink:href="#DejaVuSans-2e" transform="translate(63.623047 0)"/>
       <use xlink:href="#DejaVuSans-30" transform="translate(95.410156 0)"/>
       <use xlink:href="#DejaVuSans-30" transform="translate(159.033203 0)"/>
      </g>
     </g>
    </g>
    <g id="xtick_3">
     <g id="line2d_5">
      <path d="M 282.418 282.04 
L 282.418 10.8 
" clip-path="url(#p99e039835f)" style="fill: none; stroke: #b0b0b0; stroke-opacity: 0.5; stroke-width: 0.8; stroke-linecap: square"/>
     </g>
     <g id="line2d_6">
      <g>
       <use xlink:href="#m90e77c568c" x="282.418" y="282.04" style="stroke: #000000; stroke-width: 0.8"/>
      </g>
     </g>
     <g id="text_3">
      <!-- 0.02 -->
      <g transform="translate(271.285187 296.638438) scale(0.1 -0.1)">
       <use xlink:href="#DejaVuSans-30"/>
       <use xlink:href="#DejaVuSans-2e" transform="translate(63.623047 0)"/>
       <use xlink:href="#DejaVuSans-30" transform="translate(95.410156 0)"/>
       <use xlink:href="#DejaVuSans-32" transform="translate(159.033203 0)"/>
      </g>
     </g>
    </g>
    <g id="xtick_4">
     <g id="line2d_7">
      <path d="M 350.346 282.04 
L 350.346 10.8 
" clip-path="url(#p99e039835f)" style="fill: none; stroke: #b0b0b0; stroke-opacity: 0.5; stroke-width: 0.8; stroke-linecap: square"/>
     </g>
     <g id="line2d_8">
      <g>
       <use xlink:href="#m90e77c568c" x="350.346" y="282.04" style="stroke: #000000; stroke-width: 0.8"/>
      </g>
     </g>
     <g id="text_4">
      <!-- 0.04 -->
      <g transform="translate(339.213187 296.638438) scale(0.1 -0.1)">
       <defs>
        <path id="DejaVuSans-34" d="M 2419 4116 
L 825 1625 
L 2419 1625 
L 2419 4116 
z
M 2253 4666 
L 3047 4666 
L 3047 1625 
L 3713 1625 
L 3713 1100 
L 3047 1100 
L 3047 0 
L 2419 0 
L 2419 1100 
L 313 1100 
L 313 1709 
L 2253 4666 
z
" transform="scale(0.015625)"/>
       </defs>
       <use xlink:href="#DejaVuSans-30"/>
       <use xlink:href="#DejaVuSans-2e" transform="translate(63.623047 0)"/>
       <use xlink:href="#DejaVuSans-30" transform="translate(95.410156 0)"/>
       <use xlink:href="#DejaVuSans-34" transform="translate(159.033203 0)"/>
      </g>
     </g>
    </g>
    <g id="xtick_5">
     <g id="line2d_9">
      <path d="M 418.274 282.04 
L 418.274 10.8 
" clip-path="url(#p99e039835f)" style="fill: none; stroke: #b0b0b0; stroke-opacity: 0.5; stroke-width: 0.8; stroke-linecap: square"/>
     </g>
     <g id="line2d_10">
      <g>
       <use xlink:href="#m90e77c568c" x="418.274" y="282.04" style="stroke: #000000; stroke-width: 0.8"/>
      </g>
     </g>
     <g id="text_5">
      <!-- 0.06 -->
      <g transform="translate(407.141187 296.638438) scale(0.1 -0.1)">
       <defs>
        <path id="DejaVuSans-36" d="M 2113 2584 
Q 1688 2584 1439 2293 
Q 1191 2003 1191 1497 
Q 1191 994 1439 701 
Q 1688 409 2113 409 
Q 2538 409 2786 701 
Q 3034 994 3034 1497 
Q 3034 2003 2786 2293 
Q 2538 2584 2113 2584 
z
M 3366 4563 
L 3366 3988 
Q 3128 4100 2886 4159 
Q 2644 4219 2406 4219 
Q 1781 4219 1451 3797 
Q 1122 3375 1075 2522 
Q 1259 2794 1537 2939 
Q 1816 3084 2150 3084 
Q 2853 3084 3261 2657 
Q 3669 2231 3669 1497 
Q 3669 778 3244 343 
Q 2819 -91 2113 -91 
Q 1303 -91 875 529 
Q 447 1150 447 2328 
Q 447 3434 972 4092 
Q 1497 4750 2381 4750 
Q 2619 4750 2861 4703 
Q 3103 4656 3366 4563 
z
" transform="scale(0.015625)"/>
       </defs>
       <use xlink:href="#DejaVuSans-30"/>
       <use xlink:href="#DejaVuSans-2e" transform="translate(63.623047 0)"/>
       <use xlink:href="#DejaVuSans-30" transform="translate(95.410156 0)"/>
       <use xlink:href="#DejaVuSans-36" transform="translate(159.033203 0)"/>
      </g>
     </g>
    </g>
    <g id="xtick_6">
     <g id="line2d_11">
      <path d="M 486.202 282.04 
L 486.202 10.8 
" clip-path="url(#p99e039835f)" style="fill: none; stroke: #b0b0b0; stroke-opacity: 0.5; stroke-width: 0.8; stroke-linecap: square"/>
     </g>
     <g id="line2d_12">
      <g>
       <use xlink:href="#m90e77c568c" x="486.202" y="282.04" style="stroke: #000000; stroke-width: 0.8"/>
      </g>
     </g>
     <g id="text_6">
      <!-- 0.08 -->
      <g transform="translate(475.069187 296.638438) scale(0.1 -0.1)">
       <defs>
        <path id="DejaVuSans-38" d="M 2034 2216 
Q 1584 2216 1326 1975 
Q 1069 1734 1069 1313 
Q 1069 891 1326 650 
Q 1584 409 2034 409 
Q 2484 409 2743 651 
Q 3003 894 3003 1313 
Q 3003 1734 2745 1975 
Q 2488 2216 2034 2216 
z
M 1403 2484 
Q 997 2584 770 2862 
Q 544 3141 544 3541 
Q 544 4100 942 4425 
Q 1341 4750 2034 4750 
Q 2731 4750 3128 4425 
Q 3525 4100 3525 3541 
Q 3525 3141 3298 2862 
Q 3072 2584 2669 2484 
Q 3125 2378 3379 2068 
Q 3634 1759 3634 1313 
Q 3634 634 3220 271 
Q 2806 -91 2034 -91 
Q 1263 -91 848 271 
Q 434 634 434 1313 
Q 434 1759 690 2068 
Q 947 2378 1403 2484 
z
M 1172 3481 
Q 1172 3119 1398 2916 
Q 1625 2713 2034 2713 
Q 2441 2713 2670 2916 
Q 2900 3119 2900 3481 
Q 2900 3844 2670 4047 
Q 2441 4250 2034 4250 
Q 1625 4250 1398 4047 
Q 1172 3844 1172 3481 
z
" transform="scale(0.015625)"/>
       </defs>
       <use xlink:href="#DejaVuSans-30"/>
       <use xlink:href="#DejaVuSans-2e" transform="translate(63.623047 0)"/>
       <use xlink:href="#DejaVuSans-30" transform="translate(95.410156 0)"/>
       <use xlink:href="#DejaVuSans-38" transform="translate(159.033203 0)"/>
      </g>
     </g>
    </g>
    <g id="xtick_7">
     <g id="line2d_13">
      <path d="M 554.13 282.04 
L 554.13 10.8 
" clip-path="url(#p99e039835f)" style="fill: none; stroke: #b0b0b0; stroke-opacity: 0.5; stroke-width: 0.8; stroke-linecap: square"/>
     </g>
     <g id="line2d_14">
      <g>
       <use xlink:href="#m90e77c568c" x="554.13" y="282.04" style="stroke: #000000; stroke-width: 0.8"/>
      </g>
     </g>
     <g id="text_7">
      <!-- 0.10 -->
      <g transform="translate(542.997187 296.638438) scale(0.1 -0.1)">
       <defs>
        <path id="DejaVuSans-31" d="M 794 531 
L 1825 531 
L 1825 4091 
L 703 3866 
L 703 4441 
L 1819 4666 
L 2450 4666 
L 2450 531 
L 3481 531 
L 3481 0 
L 794 0 
L 794 531 
z
" transform="scale(0.015625)"/>
       </defs>
       <use xlink:href="#DejaVuSans-30"/>
       <use xlink:href="#DejaVuSans-2e" transform="translate(63.623047 0)"/>
       <use xlink:href="#DejaVuSans-31" transform="translate(95.410156 0)"/>
       <use xlink:href="#DejaVuSans-30" transform="translate(159.033203 0)"/>
      </g>
     </g>
    </g>
    <g id="text_8">
     <!-- Out-of-sample R² -->
     <g transform="translate(299.297187 310.316563) scale(0.1 -0.1)">
      <defs>
       <path id="DejaVuSans-4f" d="M 2522 4238 
Q 1834 4238 1429 3725 
Q 1025 3213 1025 2328 
Q 1025 1447 1429 934 
Q 1834 422 2522 422 
Q 3209 422 3611 934 
Q 4013 1447 4013 2328 
Q 4013 3213 3611 3725 
Q 3209 4238 2522 4238 
z
M 2522 4750 
Q 3503 4750 4090 4092 
Q 4678 3434 4678 2328 
Q 4678 1225 4090 567 
Q 3503 -91 2522 -91 
Q 1538 -91 948 565 
Q 359 1222 359 2328 
Q 359 3434 948 4092 
Q 1538 4750 2522 4750 
z
" transform="scale(0.015625)"/>
       <path id="DejaVuSans-75" d="M 544 1381 
L 544 3500 
L 1119 3500 
L 1119 1403 
Q 1119 906 1312 657 
Q 1506 409 1894 409 
Q 2359 409 2629 706 
Q 2900 1003 2900 1516 
L 2900 3500 
L 3475 3500 
L 3475 0 
L 2900 0 
L 2900 538 
Q 2691 219 2414 64 
Q 2138 -91 1772 -91 
Q 1169 -91 856 284 
Q 544 659 544 1381 
z
M 1991 3584 
L 1991 3584 
z
" transform="scale(0.015625)"/>
       <path id="DejaVuSans-74" d="M 1172 4494 
L 1172 3500 
L 2356 3500 
L 2356 3053 
L 1172 3053 
L 1172 1153 
Q 1172 725 1289 603 
Q 1406 481 1766 481 
L 2356 481 
L 2356 0 
L 1766 0 
Q 1100 0 847 248 
Q 594 497 594 1153 
L 594 3053 
L 172 3053 
L 172 3500 
L 594 3500 
L 594 4494 
L 1172 4494 
z
" transform="scale(0.015625)"/>
       <path id="DejaVuSans-2d" d="M 313 2009 
L 1997 2009 
L 1997 1497 
L 313 1497 
L 313 2009 
z
" transform="scale(0.015625)"/>
       <path id="DejaVuSans-6f" d="M 1959 3097 
Q 1497 3097 1228 2736 
Q 959 2375 959 1747 
Q 959 1119 1226 758 
Q 1494 397 1959 397 
Q 2419 397 2687 759 
Q 2956 1122 2956 1747 
Q 2956 2369 2687 2733 
Q 2419 3097 1959 3097 
z
M 1959 3584 
Q 2709 3584 3137 3096 
Q 3566 2609 3566 1747 
Q 3566 888 3137 398 
Q 2709 -91 1959 -91 
Q 1206 -91 779 398 
Q 353 888 353 1747 
Q 353 2609 779 3096 
Q 1206 3584 1959 3584 
z
" transform="scale(0.015625)"/>
       <path id="DejaVuSans-66" d="M 2375 4863 
L 2375 4384 
L 1825 4384 
Q 1516 4384 1395 4259 
Q 1275 4134 1275 3809 
L 1275 3500 
L 2222 3500 
L 2222 3053 
L 1275 3053 
L 1275 0 
L 697 0 
L 697 3053 
L 147 3053 
L 147 3500 
L 697 3500 
L 697 3744 
Q 697 4328 969 4595 
Q 1241 4863 1831 4863 
L 2375 4863 
z
" transform="scale(0.015625)"/>
       <path id="DejaVuSans-73" d="M 2834 3397 
L 2834 2853 
Q 2591 2978 2328 3040 
Q 2066 3103 1784 3103 
Q 1356 3103 1142 2972 
Q 928 2841 928 2578 
Q 928 2378 1081 2264 
Q 1234 2150 1697 2047 
L 1894 2003 
Q 2506 1872 2764 1633 
Q 3022 1394 3022 966 
Q 3022 478 2636 193 
Q 2250 -91 1575 -91 
Q 1294 -91 989 -36 
Q 684 19 347 128 
L 347 722 
Q 666 556 975 473 
Q 1284 391 1588 391 
Q 1994 391 2212 530 
Q 2431 669 2431 922 
Q 2431 1156 2273 1281 
Q 2116 1406 1581 1522 
L 1381 1569 
Q 847 1681 609 1914 
Q 372 2147 372 2553 
Q 372 3047 722 3315 
Q 1072 3584 1716 3584 
Q 2034 3584 2315 3537 
Q 2597 3491 2834 3397 
z
" transform="scale(0.015625)"/>
       <path id="DejaVuSans-61" d="M 2194 1759 
Q 1497 1759 1228 1600 
Q 959 1441 959 1056 
Q 959 750 1161 570 
Q 1363 391 1709 391 
Q 2188 391 2477 730 
Q 2766 1069 2766 1631 
L 2766 1759 
L 2194 1759 
z
M 3341 1997 
L 3341 0 
L 2766 0 
L 2766 531 
Q 2569 213 2275 61 
Q 1981 -91 1556 -91 
Q 1019 -91 701 211 
Q 384 513 384 1019 
Q 384 1609 779 1909 
Q 1175 2209 1959 2209 
L 2766 2209 
L 2766 2266 
Q 2766 2663 2505 2880 
Q 2244 3097 1772 3097 
Q 1472 3097 1187 3025 
Q 903 2953 641 2809 
L 641 3341 
Q 956 3463 1253 3523 
Q 1550 3584 1831 3584 
Q 2591 3584 2966 3190 
Q 3341 2797 3341 1997 
z
" transform="scale(0.015625)"/>
       <path id="DejaVuSans-6d" d="M 3328 2828 
Q 3544 3216 3844 3400 
Q 4144 3584 4550 3584 
Q 5097 3584 5394 3201 
Q 5691 2819 5691 2113 
L 5691 0 
L 5113 0 
L 5113 2094 
Q 5113 2597 4934 2840 
Q 4756 3084 4391 3084 
Q 3944 3084 3684 2787 
Q 3425 2491 3425 1978 
L 3425 0 
L 2847 0 
L 2847 2094 
Q 2847 2600 2669 2842 
Q 2491 3084 2119 3084 
Q 1678 3084 1418 2786 
Q 1159 2488 1159 1978 
L 1159 0 
L 581 0 
L 581 3500 
L 1159 3500 
L 1159 2956 
Q 1356 3278 1631 3431 
Q 1906 3584 2284 3584 
Q 2666 3584 2933 3390 
Q 3200 3197 3328 2828 
z
" transform="scale(0.015625)"/>
       <path id="DejaVuSans-70" d="M 1159 525 
L 1159 -1331 
L 581 -1331 
L 581 3500 
L 1159 3500 
L 1159 2969 
Q 1341 3281 1617 3432 
Q 1894 3584 2278 3584 
Q 2916 3584 3314 3078 
Q 3713 2572 3713 1747 
Q 3713 922 3314 415 
Q 2916 -91 2278 -91 
Q 1894 -91 1617 61 
Q 1341 213 1159 525 
z
M 3116 1747 
Q 3116 2381 2855 2742 
Q 2594 3103 2138 3103 
Q 1681 3103 1420 2742 
Q 1159 2381 1159 1747 
Q 1159 1113 1420 752 
Q 1681 391 2138 391 
Q 2594 391 2855 752 
Q 3116 1113 3116 1747 
z
" transform="scale(0.015625)"/>
       <path id="DejaVuSans-6c" d="M 603 4863 
L 1178 4863 
L 1178 0 
L 603 0 
L 603 4863 
z
" transform="scale(0.015625)"/>
       <path id="DejaVuSans-65" d="M 3597 1894 
L 3597 1613 
L 953 1613 
Q 991 1019 1311 708 
Q 1631 397 2203 397 
Q 2534 397 2845 478 
Q 3156 559 3463 722 
L 3463 178 
Q 3153 47 2828 -22 
Q 2503 -91 2169 -91 
Q 1331 -91 842 396 
Q 353 884 353 1716 
Q 353 2575 817 3079 
Q 1281 3584 2069 3584 
Q 2775 3584 3186 3129 
Q 3597 2675 3597 1894 
z
M 3022 2063 
Q 3016 2534 2758 2815 
Q 2500 3097 2075 3097 
Q 1594 3097 1305 2825 
Q 1016 2553 972 2059 
L 3022 2063 
z
" transform="scale(0.015625)"/>
       <path id="DejaVuSans-20" transform="scale(0.015625)"/>
       <path id="DejaVuSans-52" d="M 2841 2188 
Q 3044 2119 3236 1894 
Q 3428 1669 3622 1275 
L 4263 0 
L 3584 0 
L 2988 1197 
Q 2756 1666 2539 1819 
Q 2322 1972 1947 1972 
L 1259 1972 
L 1259 0 
L 628 0 
L 628 4666 
L 2053 4666 
Q 2853 4666 3247 4331 
Q 3641 3997 3641 3322 
Q 3641 2881 3436 2590 
Q 3231 2300 2841 2188 
z
M 1259 4147 
L 1259 2491 
L 2053 2491 
Q 2509 2491 2742 2702 
Q 2975 2913 2975 3322 
Q 2975 3731 2742 3939 
Q 2509 4147 2053 4147 
L 1259 4147 
z
" transform="scale(0.015625)"/>
       <path id="DejaVuSans-b2" d="M 838 2444 
L 2163 2444 
L 2163 2088 
L 294 2088 
L 294 2431 
Q 400 2528 597 2703 
Q 1672 3656 1672 3950 
Q 1672 4156 1509 4282 
Q 1347 4409 1081 4409 
Q 919 4409 728 4354 
Q 538 4300 313 4191 
L 313 4575 
Q 553 4663 761 4706 
Q 969 4750 1147 4750 
Q 1600 4750 1872 4544 
Q 2144 4338 2144 4000 
Q 2144 3566 1109 2678 
Q 934 2528 838 2444 
z
" transform="scale(0.015625)"/>
      </defs>
      <use xlink:href="#DejaVuSans-4f"/>
      <use xlink:href="#DejaVuSans-75" transform="translate(78.710938 0)"/>
      <use xlink:href="#DejaVuSans-74" transform="translate(142.089844 0)"/>
      <use xlink:href="#DejaVuSans-2d" transform="translate(181.298828 0)"/>
      <use xlink:href="#DejaVuSans-6f" transform="translate(219.257812 0)"/>
      <use xlink:href="#DejaVuSans-66" transform="translate(280.439453 0)"/>
      <use xlink:href="#DejaVuSans-2d" transform="translate(310.144531 0)"/>
      <use xlink:href="#DejaVuSans-73" transform="translate(346.228516 0)"/>
      <use xlink:href="#DejaVuSans-61" transform="translate(398.328125 0)"/>
      <use xlink:href="#DejaVuSans-6d" transform="translate(459.607422 0)"/>
      <use xlink:href="#DejaVuSans-70" transform="translate(557.019531 0)"/>
      <use xlink:href="#DejaVuSans-6c" transform="translate(620.496094 0)"/>
      <use xlink:href="#DejaVuSans-65" transform="translate(648.279297 0)"/>
      <use xlink:href="#DejaVuSans-20" transform="translate(709.802734 0)"/>
      <use xlink:href="#DejaVuSans-52" transform="translate(741.589844 0)"/>
      <use xlink:href="#DejaVuSans-b2" transform="translate(811.072266 0)"/>
     </g>
    </g>
   </g>
   <g id="matplotlib.axis_2">
    <g id="ytick_1">
     <g id="line2d_15">
      <path d="M 129.58 259.977416 
L 554.13 259.977416 
" clip-path="url(#p99e039835f)" style="fill: none; stroke-dasharray: 2.96,1.28; stroke-dashoffset: 0; stroke: #b0b0b0; stroke-opacity: 0.5; stroke-width: 0.8"/>
     </g>
     <g id="line2d_16">
      <defs>
       <path id="m5df39bafb9" d="M 0 0 
L -3.5 0 
" style="stroke: #000000; stroke-width: 0.8"/>
      </defs>
      <g>
       <use xlink:href="#m5df39bafb9" x="129.58" y="259.977416" style="stroke: #000000; stroke-width: 0.8"/>
      </g>
     </g>
     <g id="text_9">
      <!-- Superior_Parietal -->
      <g transform="translate(37.697188 263.776635) scale(0.1 -0.1)">
       <defs>
        <path id="DejaVuSans-53" d="M 3425 4513 
L 3425 3897 
Q 3066 4069 2747 4153 
Q 2428 4238 2131 4238 
Q 1616 4238 1336 4038 
Q 1056 3838 1056 3469 
Q 1056 3159 1242 3001 
Q 1428 2844 1947 2747 
L 2328 2669 
Q 3034 2534 3370 2195 
Q 3706 1856 3706 1288 
Q 3706 609 3251 259 
Q 2797 -91 1919 -91 
Q 1588 -91 1214 -16 
Q 841 59 441 206 
L 441 856 
Q 825 641 1194 531 
Q 1563 422 1919 422 
Q 2459 422 2753 634 
Q 3047 847 3047 1241 
Q 3047 1584 2836 1778 
Q 2625 1972 2144 2069 
L 1759 2144 
Q 1053 2284 737 2584 
Q 422 2884 422 3419 
Q 422 4038 858 4394 
Q 1294 4750 2059 4750 
Q 2388 4750 2728 4690 
Q 3069 4631 3425 4513 
z
" transform="scale(0.015625)"/>
        <path id="DejaVuSans-72" d="M 2631 2963 
Q 2534 3019 2420 3045 
Q 2306 3072 2169 3072 
Q 1681 3072 1420 2755 
Q 1159 2438 1159 1844 
L 1159 0 
L 581 0 
L 581 3500 
L 1159 3500 
L 1159 2956 
Q 1341 3275 1631 3429 
Q 1922 3584 2338 3584 
Q 2397 3584 2469 3576 
Q 2541 3569 2628 3553 
L 2631 2963 
z
" transform="scale(0.015625)"/>
        <path id="DejaVuSans-69" d="M 603 3500 
L 1178 3500 
L 1178 0 
L 603 0 
L 603 3500 
z
M 603 4863 
L 1178 4863 
L 1178 4134 
L 603 4134 
L 603 4863 
z
" transform="scale(0.015625)"/>
        <path id="DejaVuSans-5f" d="M 3263 -1063 
L 3263 -1509 
L -63 -1509 
L -63 -1063 
L 3263 -1063 
z
" transform="scale(0.015625)"/>
        <path id="DejaVuSans-50" d="M 1259 4147 
L 1259 2394 
L 2053 2394 
Q 2494 2394 2734 2622 
Q 2975 2850 2975 3272 
Q 2975 3691 2734 3919 
Q 2494 4147 2053 4147 
L 1259 4147 
z
M 628 4666 
L 2053 4666 
Q 2838 4666 3239 4311 
Q 3641 3956 3641 3272 
Q 3641 2581 3239 2228 
Q 2838 1875 2053 1875 
L 1259 1875 
L 1259 0 
L 628 0 
L 628 4666 
z
" transform="scale(0.015625)"/>
       </defs>
       <use xlink:href="#DejaVuSans-53"/>
       <use xlink:href="#DejaVuSans-75" transform="translate(63.476562 0)"/>
       <use xlink:href="#DejaVuSans-70" transform="translate(126.855469 0)"/>
       <use xlink:href="#DejaVuSans-65" transform="translate(190.332031 0)"/>
       <use xlink:href="#DejaVuSans-72" transform="translate(251.855469 0)"/>
       <use xlink:href="#DejaVuSans-69" transform="translate(292.96875 0)"/>
       <use xlink:href="#DejaVuSans-6f" transform="translate(320.751953 0)"/>
       <use xlink:href="#DejaVuSans-72" transform="translate(381.933594 0)"/>
       <use xlink:href="#DejaVuSans-5f" transform="translate(423.046875 0)"/>
       <use xlink:href="#DejaVuSans-50" transform="translate(473.046875 0)"/>
       <use xlink:href="#DejaVuSans-61" transform="translate(528.849609 0)"/>
       <use xlink:href="#DejaVuSans-72" transform="translate(590.128906 0)"/>
       <use xlink:href="#DejaVuSans-69" transform="translate(631.242188 0)"/>
       <use xlink:href="#DejaVuSans-65" transform="translate(659.025391 0)"/>
       <use xlink:href="#DejaVuSans-74" transform="translate(720.548828 0)"/>
       <use xlink:href="#DejaVuSans-61" transform="translate(759.757812 0)"/>
       <use xlink:href="#DejaVuSans-6c" transform="translate(821.037109 0)"/>
      </g>
     </g>
    </g>
    <g id="ytick_2">
     <g id="line2d_17">
      <path d="M 129.58 227.53244 
L 554.13 227.53244 
" clip-path="url(#p99e039835f)" style="fill: none; stroke-dasharray: 2.96,1.28; stroke-dashoffset: 0; stroke: #b0b0b0; stroke-opacity: 0.5; stroke-width: 0.8"/>
     </g>
     <g id="line2d_18">
      <g>
       <use xlink:href="#m5df39bafb9" x="129.58" y="227.53244" style="stroke: #000000; stroke-width: 0.8"/>
      </g>
     </g>
     <g id="text_10">
      <!-- Ventral_Stream_Visual -->
      <g transform="translate(11.062813 231.331659) scale(0.1 -0.1)">
       <defs>
        <path id="DejaVuSans-56" d="M 1831 0 
L 50 4666 
L 709 4666 
L 2188 738 
L 3669 4666 
L 4325 4666 
L 2547 0 
L 1831 0 
z
" transform="scale(0.015625)"/>
        <path id="DejaVuSans-6e" d="M 3513 2113 
L 3513 0 
L 2938 0 
L 2938 2094 
Q 2938 2591 2744 2837 
Q 2550 3084 2163 3084 
Q 1697 3084 1428 2787 
Q 1159 2491 1159 1978 
L 1159 0 
L 581 0 
L 581 3500 
L 1159 3500 
L 1159 2956 
Q 1366 3272 1645 3428 
Q 1925 3584 2291 3584 
Q 2894 3584 3203 3211 
Q 3513 2838 3513 2113 
z
" transform="scale(0.015625)"/>
       </defs>
       <use xlink:href="#DejaVuSans-56"/>
       <use xlink:href="#DejaVuSans-65" transform="translate(60.658203 0)"/>
       <use xlink:href="#DejaVuSans-6e" transform="translate(122.181641 0)"/>
       <use xlink:href="#DejaVuSans-74" transform="translate(185.560547 0)"/>
       <use xlink:href="#DejaVuSans-72" transform="translate(224.769531 0)"/>
       <use xlink:href="#DejaVuSans-61" transform="translate(265.882812 0)"/>
       <use xlink:href="#DejaVuSans-6c" transform="translate(327.162109 0)"/>
       <use xlink:href="#DejaVuSans-5f" transform="translate(354.945312 0)"/>
       <use xlink:href="#DejaVuSans-53" transform="translate(404.945312 0)"/>
       <use xlink:href="#DejaVuSans-74" transform="translate(468.421875 0)"/>
       <use xlink:href="#DejaVuSans-72" transform="translate(507.630859 0)"/>
       <use xlink:href="#DejaVuSans-65" transform="translate(546.494141 0)"/>
       <use xlink:href="#DejaVuSans-61" transform="translate(608.017578 0)"/>
       <use xlink:href="#DejaVuSans-6d" transform="translate(669.296875 0)"/>
       <use xlink:href="#DejaVuSans-5f" transform="translate(766.708984 0)"/>
       <use xlink:href="#DejaVuSans-56" transform="translate(816.708984 0)"/>
       <use xlink:href="#DejaVuSans-69" transform="translate(882.867188 0)"/>
       <use xlink:href="#DejaVuSans-73" transform="translate(910.650391 0)"/>
       <use xlink:href="#DejaVuSans-75" transform="translate(962.75 0)"/>
       <use xlink:href="#DejaVuSans-61" transform="translate(1026.128906 0)"/>
       <use xlink:href="#DejaVuSans-6c" transform="translate(1087.408203 0)"/>
      </g>
     </g>
    </g>
    <g id="ytick_3">
     <g id="line2d_19">
      <path d="M 129.58 195.087464 
L 554.13 195.087464 
" clip-path="url(#p99e039835f)" style="fill: none; stroke-dasharray: 2.96,1.28; stroke-dashoffset: 0; stroke: #b0b0b0; stroke-opacity: 0.5; stroke-width: 0.8"/>
     </g>
     <g id="line2d_20">
      <g>
       <use xlink:href="#m5df39bafb9" x="129.58" y="195.087464" style="stroke: #000000; stroke-width: 0.8"/>
      </g>
     </g>
     <g id="text_11">
      <!-- Posterior_Cingulate -->
      <g transform="translate(25.628438 198.886683) scale(0.1 -0.1)">
       <defs>
        <path id="DejaVuSans-43" d="M 4122 4306 
L 4122 3641 
Q 3803 3938 3442 4084 
Q 3081 4231 2675 4231 
Q 1875 4231 1450 3742 
Q 1025 3253 1025 2328 
Q 1025 1406 1450 917 
Q 1875 428 2675 428 
Q 3081 428 3442 575 
Q 3803 722 4122 1019 
L 4122 359 
Q 3791 134 3420 21 
Q 3050 -91 2638 -91 
Q 1578 -91 968 557 
Q 359 1206 359 2328 
Q 359 3453 968 4101 
Q 1578 4750 2638 4750 
Q 3056 4750 3426 4639 
Q 3797 4528 4122 4306 
z
" transform="scale(0.015625)"/>
        <path id="DejaVuSans-67" d="M 2906 1791 
Q 2906 2416 2648 2759 
Q 2391 3103 1925 3103 
Q 1463 3103 1205 2759 
Q 947 2416 947 1791 
Q 947 1169 1205 825 
Q 1463 481 1925 481 
Q 2391 481 2648 825 
Q 2906 1169 2906 1791 
z
M 3481 434 
Q 3481 -459 3084 -895 
Q 2688 -1331 1869 -1331 
Q 1566 -1331 1297 -1286 
Q 1028 -1241 775 -1147 
L 775 -588 
Q 1028 -725 1275 -790 
Q 1522 -856 1778 -856 
Q 2344 -856 2625 -561 
Q 2906 -266 2906 331 
L 2906 616 
Q 2728 306 2450 153 
Q 2172 0 1784 0 
Q 1141 0 747 490 
Q 353 981 353 1791 
Q 353 2603 747 3093 
Q 1141 3584 1784 3584 
Q 2172 3584 2450 3431 
Q 2728 3278 2906 2969 
L 2906 3500 
L 3481 3500 
L 3481 434 
z
" transform="scale(0.015625)"/>
       </defs>
       <use xlink:href="#DejaVuSans-50"/>
       <use xlink:href="#DejaVuSans-6f" transform="translate(56.677734 0)"/>
       <use xlink:href="#DejaVuSans-73" transform="translate(117.859375 0)"/>
       <use xlink:href="#DejaVuSans-74" transform="translate(169.958984 0)"/>
       <use xlink:href="#DejaVuSans-65" transform="translate(209.167969 0)"/>
       <use xlink:href="#DejaVuSans-72" transform="translate(270.691406 0)"/>
       <use xlink:href="#DejaVuSans-69" transform="translate(311.804688 0)"/>
       <use xlink:href="#DejaVuSans-6f" transform="translate(339.587891 0)"/>
       <use xlink:href="#DejaVuSans-72" transform="translate(400.769531 0)"/>
       <use xlink:href="#DejaVuSans-5f" transform="translate(441.882812 0)"/>
       <use xlink:href="#DejaVuSans-43" transform="translate(491.882812 0)"/>
       <use xlink:href="#DejaVuSans-69" transform="translate(561.707031 0)"/>
       <use xlink:href="#DejaVuSans-6e" transform="translate(589.490234 0)"/>
       <use xlink:href="#DejaVuSans-67" transform="translate(652.869141 0)"/>
       <use xlink:href="#DejaVuSans-75" transform="translate(716.345703 0)"/>
       <use xlink:href="#DejaVuSans-6c" transform="translate(779.724609 0)"/>
       <use xlink:href="#DejaVuSans-61" transform="translate(807.507812 0)"/>
       <use xlink:href="#DejaVuSans-74" transform="translate(868.787109 0)"/>
       <use xlink:href="#DejaVuSans-65" transform="translate(907.996094 0)"/>
      </g>
     </g>
    </g>
    <g id="ytick_4">
     <g id="line2d_21">
      <path d="M 129.58 162.642488 
L 554.13 162.642488 
" clip-path="url(#p99e039835f)" style="fill: none; stroke-dasharray: 2.96,1.28; stroke-dashoffset: 0; stroke: #b0b0b0; stroke-opacity: 0.5; stroke-width: 0.8"/>
     </g>
     <g id="line2d_22">
      <g>
       <use xlink:href="#m5df39bafb9" x="129.58" y="162.642488" style="stroke: #000000; stroke-width: 0.8"/>
      </g>
     </g>
     <g id="text_12">
      <!-- Lateral_Temporal -->
      <g transform="translate(37.003438 166.441707) scale(0.1 -0.1)">
       <defs>
        <path id="DejaVuSans-4c" d="M 628 4666 
L 1259 4666 
L 1259 531 
L 3531 531 
L 3531 0 
L 628 0 
L 628 4666 
z
" transform="scale(0.015625)"/>
        <path id="DejaVuSans-54" d="M -19 4666 
L 3928 4666 
L 3928 4134 
L 2272 4134 
L 2272 0 
L 1638 0 
L 1638 4134 
L -19 4134 
L -19 4666 
z
" transform="scale(0.015625)"/>
       </defs>
       <use xlink:href="#DejaVuSans-4c"/>
       <use xlink:href="#DejaVuSans-61" transform="translate(55.712891 0)"/>
       <use xlink:href="#DejaVuSans-74" transform="translate(116.992188 0)"/>
       <use xlink:href="#DejaVuSans-65" transform="translate(156.201172 0)"/>
       <use xlink:href="#DejaVuSans-72" transform="translate(217.724609 0)"/>
       <use xlink:href="#DejaVuSans-61" transform="translate(258.837891 0)"/>
       <use xlink:href="#DejaVuSans-6c" transform="translate(320.117188 0)"/>
       <use xlink:href="#DejaVuSans-5f" transform="translate(347.900391 0)"/>
       <use xlink:href="#DejaVuSans-54" transform="translate(397.900391 0)"/>
       <use xlink:href="#DejaVuSans-65" transform="translate(441.984375 0)"/>
       <use xlink:href="#DejaVuSans-6d" transform="translate(503.507812 0)"/>
       <use xlink:href="#DejaVuSans-70" transform="translate(600.919922 0)"/>
       <use xlink:href="#DejaVuSans-6f" transform="translate(664.396484 0)"/>
       <use xlink:href="#DejaVuSans-72" transform="translate(725.578125 0)"/>
       <use xlink:href="#DejaVuSans-61" transform="translate(766.691406 0)"/>
       <use xlink:href="#DejaVuSans-6c" transform="translate(827.970703 0)"/>
      </g>
     </g>
    </g>
    <g id="ytick_5">
     <g id="line2d_23">
      <path d="M 129.58 130.197512 
L 554.13 130.197512 
" clip-path="url(#p99e039835f)" style="fill: none; stroke-dasharray: 2.96,1.28; stroke-dashoffset: 0; stroke: #b0b0b0; stroke-opacity: 0.5; stroke-width: 0.8"/>
     </g>
     <g id="line2d_24">
      <g>
       <use xlink:href="#m5df39bafb9" x="129.58" y="130.197512" style="stroke: #000000; stroke-width: 0.8"/>
      </g>
     </g>
     <g id="text_13">
      <!-- Dorsal_Stream_Visual -->
      <g transform="translate(14.51125 133.996731) scale(0.1 -0.1)">
       <defs>
        <path id="DejaVuSans-44" d="M 1259 4147 
L 1259 519 
L 2022 519 
Q 2988 519 3436 956 
Q 3884 1394 3884 2338 
Q 3884 3275 3436 3711 
Q 2988 4147 2022 4147 
L 1259 4147 
z
M 628 4666 
L 1925 4666 
Q 3281 4666 3915 4102 
Q 4550 3538 4550 2338 
Q 4550 1131 3912 565 
Q 3275 0 1925 0 
L 628 0 
L 628 4666 
z
" transform="scale(0.015625)"/>
       </defs>
       <use xlink:href="#DejaVuSans-44"/>
       <use xlink:href="#DejaVuSans-6f" transform="translate(77.001953 0)"/>
       <use xlink:href="#DejaVuSans-72" transform="translate(138.183594 0)"/>
       <use xlink:href="#DejaVuSans-73" transform="translate(179.296875 0)"/>
       <use xlink:href="#DejaVuSans-61" transform="translate(231.396484 0)"/>
       <use xlink:href="#DejaVuSans-6c" transform="translate(292.675781 0)"/>
       <use xlink:href="#DejaVuSans-5f" transform="translate(320.458984 0)"/>
       <use xlink:href="#DejaVuSans-53" transform="translate(370.458984 0)"/>
       <use xlink:href="#DejaVuSans-74" transform="translate(433.935547 0)"/>
       <use xlink:href="#DejaVuSans-72" transform="translate(473.144531 0)"/>
       <use xlink:href="#DejaVuSans-65" transform="translate(512.007812 0)"/>
       <use xlink:href="#DejaVuSans-61" transform="translate(573.53125 0)"/>
       <use xlink:href="#DejaVuSans-6d" transform="translate(634.810547 0)"/>
       <use xlink:href="#DejaVuSans-5f" transform="translate(732.222656 0)"/>
       <use xlink:href="#DejaVuSans-56" transform="translate(782.222656 0)"/>
       <use xlink:href="#DejaVuSans-69" transform="translate(848.380859 0)"/>
       <use xlink:href="#DejaVuSans-73" transform="translate(876.164062 0)"/>
       <use xlink:href="#DejaVuSans-75" transform="translate(928.263672 0)"/>
       <use xlink:href="#DejaVuSans-61" transform="translate(991.642578 0)"/>
       <use xlink:href="#DejaVuSans-6c" transform="translate(1052.921875 0)"/>
      </g>
     </g>
    </g>
    <g id="ytick_6">
     <g id="line2d_25">
      <path d="M 129.58 97.752536 
L 554.13 97.752536 
" clip-path="url(#p99e039835f)" style="fill: none; stroke-dasharray: 2.96,1.28; stroke-dashoffset: 0; stroke: #b0b0b0; stroke-opacity: 0.5; stroke-width: 0.8"/>
     </g>
     <g id="line2d_26">
      <g>
       <use xlink:href="#m5df39bafb9" x="129.58" y="97.752536" style="stroke: #000000; stroke-width: 0.8"/>
      </g>
     </g>
     <g id="text_14">
      <!-- Medial_Temporal -->
      <g transform="translate(38.98 101.551755) scale(0.1 -0.1)">
       <defs>
        <path id="DejaVuSans-4d" d="M 628 4666 
L 1569 4666 
L 2759 1491 
L 3956 4666 
L 4897 4666 
L 4897 0 
L 4281 0 
L 4281 4097 
L 3078 897 
L 2444 897 
L 1241 4097 
L 1241 0 
L 628 0 
L 628 4666 
z
" transform="scale(0.015625)"/>
        <path id="DejaVuSans-64" d="M 2906 2969 
L 2906 4863 
L 3481 4863 
L 3481 0 
L 2906 0 
L 2906 525 
Q 2725 213 2448 61 
Q 2172 -91 1784 -91 
Q 1150 -91 751 415 
Q 353 922 353 1747 
Q 353 2572 751 3078 
Q 1150 3584 1784 3584 
Q 2172 3584 2448 3432 
Q 2725 3281 2906 2969 
z
M 947 1747 
Q 947 1113 1208 752 
Q 1469 391 1925 391 
Q 2381 391 2643 752 
Q 2906 1113 2906 1747 
Q 2906 2381 2643 2742 
Q 2381 3103 1925 3103 
Q 1469 3103 1208 2742 
Q 947 2381 947 1747 
z
" transform="scale(0.015625)"/>
       </defs>
       <use xlink:href="#DejaVuSans-4d"/>
       <use xlink:href="#DejaVuSans-65" transform="translate(86.279297 0)"/>
       <use xlink:href="#DejaVuSans-64" transform="translate(147.802734 0)"/>
       <use xlink:href="#DejaVuSans-69" transform="translate(211.279297 0)"/>
       <use xlink:href="#DejaVuSans-61" transform="translate(239.0625 0)"/>
       <use xlink:href="#DejaVuSans-6c" transform="translate(300.341797 0)"/>
       <use xlink:href="#DejaVuSans-5f" transform="translate(328.125 0)"/>
       <use xlink:href="#DejaVuSans-54" transform="translate(378.125 0)"/>
       <use xlink:href="#DejaVuSans-65" transform="translate(422.208984 0)"/>
       <use xlink:href="#DejaVuSans-6d" transform="translate(483.732422 0)"/>
       <use xlink:href="#DejaVuSans-70" transform="translate(581.144531 0)"/>
       <use xlink:href="#DejaVuSans-6f" transform="translate(644.621094 0)"/>
       <use xlink:href="#DejaVuSans-72" transform="translate(705.802734 0)"/>
       <use xlink:href="#DejaVuSans-61" transform="translate(746.916016 0)"/>
       <use xlink:href="#DejaVuSans-6c" transform="translate(808.195312 0)"/>
      </g>
     </g>
    </g>
    <g id="ytick_7">
     <g id="line2d_27">
      <path d="M 129.58 65.30756 
L 554.13 65.30756 
" clip-path="url(#p99e039835f)" style="fill: none; stroke-dasharray: 2.96,1.28; stroke-dashoffset: 0; stroke: #b0b0b0; stroke-opacity: 0.5; stroke-width: 0.8"/>
     </g>
     <g id="line2d_28">
      <g>
       <use xlink:href="#m5df39bafb9" x="129.58" y="65.30756" style="stroke: #000000; stroke-width: 0.8"/>
      </g>
     </g>
     <g id="text_15">
      <!-- Primary_Visual -->
      <g transform="translate(49.090938 69.106779) scale(0.1 -0.1)">
       <defs>
        <path id="DejaVuSans-79" d="M 2059 -325 
Q 1816 -950 1584 -1140 
Q 1353 -1331 966 -1331 
L 506 -1331 
L 506 -850 
L 844 -850 
Q 1081 -850 1212 -737 
Q 1344 -625 1503 -206 
L 1606 56 
L 191 3500 
L 800 3500 
L 1894 763 
L 2988 3500 
L 3597 3500 
L 2059 -325 
z
" transform="scale(0.015625)"/>
       </defs>
       <use xlink:href="#DejaVuSans-50"/>
       <use xlink:href="#DejaVuSans-72" transform="translate(58.552734 0)"/>
       <use xlink:href="#DejaVuSans-69" transform="translate(99.666016 0)"/>
       <use xlink:href="#DejaVuSans-6d" transform="translate(127.449219 0)"/>
       <use xlink:href="#DejaVuSans-61" transform="translate(224.861328 0)"/>
       <use xlink:href="#DejaVuSans-72" transform="translate(286.140625 0)"/>
       <use xlink:href="#DejaVuSans-79" transform="translate(327.253906 0)"/>
       <use xlink:href="#DejaVuSans-5f" transform="translate(386.433594 0)"/>
       <use xlink:href="#DejaVuSans-56" transform="translate(436.433594 0)"/>
       <use xlink:href="#DejaVuSans-69" transform="translate(502.591797 0)"/>
       <use xlink:href="#DejaVuSans-73" transform="translate(530.375 0)"/>
       <use xlink:href="#DejaVuSans-75" transform="translate(582.474609 0)"/>
       <use xlink:href="#DejaVuSans-61" transform="translate(645.853516 0)"/>
       <use xlink:href="#DejaVuSans-6c" transform="translate(707.132812 0)"/>
      </g>
     </g>
    </g>
    <g id="ytick_8">
     <g id="line2d_29">
      <path d="M 129.58 32.862584 
L 554.13 32.862584 
" clip-path="url(#p99e039835f)" style="fill: none; stroke-dasharray: 2.96,1.28; stroke-dashoffset: 0; stroke: #b0b0b0; stroke-opacity: 0.5; stroke-width: 0.8"/>
     </g>
     <g id="line2d_30">
      <g>
       <use xlink:href="#m5df39bafb9" x="129.58" y="32.862584" style="stroke: #000000; stroke-width: 0.8"/>
      </g>
     </g>
     <g id="text_16">
      <!-- Early_Visual -->
      <g transform="translate(62.478438 36.661802) scale(0.1 -0.1)">
       <defs>
        <path id="DejaVuSans-45" d="M 628 4666 
L 3578 4666 
L 3578 4134 
L 1259 4134 
L 1259 2753 
L 3481 2753 
L 3481 2222 
L 1259 2222 
L 1259 531 
L 3634 531 
L 3634 0 
L 628 0 
L 628 4666 
z
" transform="scale(0.015625)"/>
       </defs>
       <use xlink:href="#DejaVuSans-45"/>
       <use xlink:href="#DejaVuSans-61" transform="translate(63.183594 0)"/>
       <use xlink:href="#DejaVuSans-72" transform="translate(124.462891 0)"/>
       <use xlink:href="#DejaVuSans-6c" transform="translate(165.576172 0)"/>
       <use xlink:href="#DejaVuSans-79" transform="translate(193.359375 0)"/>
       <use xlink:href="#DejaVuSans-5f" transform="translate(252.539062 0)"/>
       <use xlink:href="#DejaVuSans-56" transform="translate(302.539062 0)"/>
       <use xlink:href="#DejaVuSans-69" transform="translate(368.697266 0)"/>
       <use xlink:href="#DejaVuSans-73" transform="translate(396.480469 0)"/>
       <use xlink:href="#DejaVuSans-75" transform="translate(448.580078 0)"/>
       <use xlink:href="#DejaVuSans-61" transform="translate(511.958984 0)"/>
       <use xlink:href="#DejaVuSans-6c" transform="translate(573.238281 0)"/>
      </g>
     </g>
    </g>
   </g>
   <g id="line2d_31">
    <path d="M 214.49 282.04 
L 214.49 10.8 
" clip-path="url(#p99e039835f)" style="fill: none; stroke: #000000; stroke-width: 1.5; stroke-linecap: square"/>
   </g>
   <g id="patch_28">
    <path d="M 129.58 282.04 
L 129.58 10.8 
" style="fill: none; stroke: #000000; stroke-width: 0.8; stroke-linejoin: miter; stroke-linecap: square"/>
   </g>
   <g id="patch_29">
    <path d="M 129.58 282.04 
L 554.13 282.04 
" style="fill: none; stroke: #000000; stroke-width: 0.8; stroke-linejoin: miter; stroke-linecap: square"/>
   </g>
  </g>
 </g>
 <defs>
  <clipPath id="p99e039835f">
   <rect x="129.58" y="10.8" width="424.55" height="271.24"/>
  </clipPath>
 </defs>
</svg>
