<?xml version="1.0" encoding="utf-8" standalone="no"?>
<!DOCTYPE svg PUBLIC "-//W3C//DTD SVG 1.1//EN"
  "http://www.w3.org/Graphics/SVG/1.1/DTD/svg11.dtd">
<svg xmlns:xlink="http://www.w3.org/1999/xlink" width="360pt" height="270pt" viewBox="0 0 360 270" xmlns="http://www.w3.org/2000/svg" version="1.1">
 <metadata>
  <rdf:RDF xmlns:dc="http://purl.org/dc/elements/1.1/" xmlns:cc="http://creativecommons.org/ns#" xmlns:rdf="http://www.w3.org/1999/02/22-rdf-syntax-ns#">
   <cc:Work>
    <dc:type rdf:resource="http://purl.org/dc/dcmitype/StillImage"/>
    <dc:date>2026-01-13T13:47:51.486757</dc:date>
    <dc:format>image/svg+xml</dc:format>
    <dc:creator>
     <cc:Agent>
      <dc:title>Matplotlib v3.10.8, https://matplotlib.org/</dc:title>
     </cc:Agent>
    </dc:creator>
   </cc:Work>
  </rdf:RDF>
 </metadata>
 <defs>
  <style type="text/css">*{stroke-linejoin: round; stroke-linecap: butt}</style>
 </defs>
 <g id="figure_1">
  <g id="patch_1">
   <path d="M 0 270 
L 360 270 
L 360 0 
L 0 0 
z
" style="fill: #ffffff"/>
  </g>
  <g id="axes_1">
   <g id="patch_2">
    <path d="M 45 240.3 
L 324 240.3 
L 324 32.4 
L 45 32.4 
z
" style="fill: #ffffff"/>
   </g>
   <g id="FillBetweenPolyCollection_1">
    <path d="M 57.681818 181.025837 
L 57.681818 230.85 
L 58.190107 230.402378 
L 58.698397 229.954971 
L 59.206686 229.507782 
L 59.714975 229.060818 
L 60.223265 228.614082 
L 60.731554 228.167579 
L 61.239843 227.721314 
L 61.748133 227.275292 
L 62.256422 226.829518 
L 62.764711 226.383997 
L 63.273001 225.938733 
L 63.78129 225.493732 
L 64.289579 225.049 
L 64.797868 224.60454 
L 65.306158 224.160359 
L 65.814447 223.716461 
L 66.322736 223.272853 
L 66.831026 222.829539 
L 67.339315 222.386525 
L 67.847604 221.943817 
L 68.355894 221.501419 
L 68.864183 221.059338 
L 69.372472 220.61758 
L 69.880762 220.17615 
L 70.389051 219.735054 
L 70.89734 219.294298 
L 71.405629 218.853889 
L 71.913919 218.413832 
L 72.422208 217.974133 
L 72.930497 217.534799 
L 73.438787 217.095837 
L 73.947076 216.657256 
L 74.455365 216.219063 
L 74.963655 215.781266 
L 75.471944 215.343875 
L 75.980233 214.906896 
L 76.488522 214.470338 
L 76.996812 214.034209 
L 77.505101 213.598519 
L 78.01339 213.163273 
L 78.52168 212.728482 
L 79.029969 212.294154 
L 79.538258 211.860295 
L 80.046548 211.426916 
L 80.554837 210.994025 
L 81.063126 210.561628 
L 81.571416 210.129736 
L 82.079705 209.698357 
L 82.587994 209.267498 
L 83.096283 208.837169 
L 83.604573 208.407378 
L 84.112862 207.978132 
L 84.621151 207.549442 
L 85.129441 207.121315 
L 85.63773 206.69376 
L 86.146019 206.266786 
L 86.654309 205.840401 
L 87.162598 205.414614 
L 87.670887 204.989433 
L 88.179177 204.564867 
L 88.687466 204.140926 
L 89.195755 203.717619 
L 89.704044 203.294954 
L 90.212334 202.872942 
L 90.720623 202.45159 
L 91.228912 202.030908 
L 91.737202 201.610905 
L 92.245491 201.191589 
L 92.75378 200.77297 
L 93.26207 200.355056 
L 93.770359 199.937855 
L 94.278648 199.521377 
L 94.786938 199.10563 
L 95.295227 198.690622 
L 95.803516 198.276362 
L 96.311805 197.862858 
L 96.820095 197.450118 
L 97.328384 197.03815 
L 97.836673 196.626962 
L 98.344963 196.216563 
L 98.853252 195.80696 
L 99.361541 195.39816 
L 99.869831 194.990172 
L 100.37812 194.583003 
L 100.886409 194.17666 
L 101.394698 193.77115 
L 101.902988 193.366482 
L 102.411277 192.962661 
L 102.919566 192.559695 
L 103.427856 192.157589 
L 103.936145 191.756348 
L 104.444434 191.355979 
L 104.952724 190.956484 
L 105.461013 190.55787 
L 105.969302 190.16014 
L 106.477592 189.763298 
L 106.985881 189.367349 
L 107.49417 188.972297 
L 108.002459 188.578143 
L 108.510749 188.184893 
L 109.019038 187.792547 
L 109.527327 187.40111 
L 110.035617 187.010583 
L 110.543906 186.620968 
L 111.052195 186.232266 
L 111.560485 185.844479 
L 112.068774 185.457608 
L 112.577063 185.071653 
L 113.085353 184.686615 
L 113.593642 184.302493 
L 114.101931 183.919286 
L 114.61022 183.536994 
L 115.11851 183.155616 
L 115.626799 182.775149 
L 116.135088 182.395591 
L 116.643378 182.016941 
L 117.151667 181.639194 
L 117.659956 181.262348 
L 118.168246 180.886403 
L 118.676535 180.511361 
L 119.184824 180.137224 
L 119.693113 179.763994 
L 120.201403 179.391672 
L 120.709692 179.020259 
L 121.217981 178.649754 
L 121.726271 178.280159 
L 122.23456 177.911472 
L 122.742849 177.543694 
L 123.251139 177.176821 
L 123.759428 176.810852 
L 124.267717 176.445786 
L 124.776007 176.081619 
L 125.284296 175.718348 
L 125.792585 175.35597 
L 126.300874 174.994479 
L 126.809164 174.633871 
L 127.317453 174.274142 
L 127.825742 173.915285 
L 128.334032 173.557295 
L 128.842321 173.200164 
L 129.35061 172.843885 
L 129.8589 172.488451 
L 130.367189 172.133855 
L 130.875478 171.780087 
L 131.383768 171.427138 
L 131.892057 171.074999 
L 132.400346 170.723661 
L 132.908635 170.373113 
L 133.416925 170.023345 
L 133.925214 169.674346 
L 134.433503 169.326105 
L 134.941793 168.97861 
L 135.450082 168.63185 
L 135.958371 168.285812 
L 136.466661 167.940485 
L 136.97495 167.595855 
L 137.483239 167.25191 
L 137.991529 166.908637 
L 138.499818 166.566022 
L 139.008107 166.224051 
L 139.516396 165.882711 
L 140.024686 165.541986 
L 140.532975 165.201863 
L 141.041264 164.862327 
L 141.549554 164.523363 
L 142.057843 164.184954 
L 142.566132 163.847087 
L 143.074422 163.509745 
L 143.582711 163.172913 
L 144.091 162.836574 
L 144.599289 162.500712 
L 145.107579 162.16531 
L 145.615868 161.830353 
L 146.124157 161.495824 
L 146.632447 161.161706 
L 147.140736 160.827982 
L 147.649025 160.494636 
L 148.157315 160.161657 
L 148.665604 159.829036 
L 149.173893 159.496763 
L 149.682183 159.164828 
L 150.190472 158.833223 
L 150.698761 158.501937 
L 151.20705 158.170962 
L 151.71534 157.840287 
L 152.223629 157.509903 
L 152.731918 157.179801 
L 153.240208 156.849971 
L 153.748497 156.520404 
L 154.256786 156.191089 
L 154.765076 155.862018 
L 155.273365 155.53318 
L 155.781654 155.204567 
L 156.289944 154.876169 
L 156.798233 154.547977 
L 157.306522 154.21998 
L 157.814811 153.89217 
L 158.323101 153.564538 
L 158.83139 153.237073 
L 159.339679 152.909767 
L 159.847969 152.582611 
L 160.356258 152.255595 
L 160.864547 151.928711 
L 161.372837 151.601949 
L 161.881126 151.275301 
L 162.389415 150.948758 
L 162.897704 150.622314 
L 163.405994 150.295964 
L 163.914283 149.969705 
L 164.422572 149.643533 
L 164.930862 149.317444 
L 165.439151 148.991434 
L 165.94744 148.665499 
L 166.45573 148.339636 
L 166.964019 148.013841 
L 167.472308 147.688111 
L 167.980598 147.362442 
L 168.488887 147.036831 
L 168.997176 146.711274 
L 169.505465 146.385768 
L 170.013755 146.06031 
L 170.522044 145.734896 
L 171.030333 145.409523 
L 171.538623 145.084188 
L 172.046912 144.758888 
L 172.555201 144.43362 
L 173.063491 144.10838 
L 173.57178 143.783166 
L 174.080069 143.457974 
L 174.588359 143.132802 
L 175.096648 142.807647 
L 175.604937 142.482507 
L 176.113226 142.157377 
L 176.621516 141.832257 
L 177.129805 141.507142 
L 177.638094 141.182035 
L 178.146384 140.856942 
L 178.654673 140.531871 
L 179.162962 140.206833 
L 179.671252 139.881835 
L 180.179541 139.556886 
L 180.68783 139.231995 
L 181.19612 138.907171 
L 181.704409 138.582422 
L 182.212698 138.257759 
L 182.720987 137.933188 
L 183.229277 137.60872 
L 183.737566 137.284363 
L 184.245855 136.960125 
L 184.754145 136.636017 
L 185.262434 136.312045 
L 185.770723 135.98822 
L 186.279013 135.66455 
L 186.787302 135.341044 
L 187.295591 135.017709 
L 187.80388 134.694556 
L 188.31217 134.371593 
L 188.820459 134.048827 
L 189.328748 133.726269 
L 189.837038 133.403927 
L 190.345327 133.081808 
L 190.853616 132.759923 
L 191.361906 132.438279 
L 191.870195 132.116885 
L 192.378484 131.795749 
L 192.886774 131.474874 
L 193.395063 131.154262 
L 193.903352 130.833914 
L 194.411641 130.513831 
L 194.919931 130.194015 
L 195.42822 129.874466 
L 195.936509 129.555185 
L 196.444799 129.236175 
L 196.953088 128.917435 
L 197.461377 128.598967 
L 197.969667 128.280772 
L 198.477956 127.96285 
L 198.986245 127.645203 
L 199.494535 127.32783 
L 200.002824 127.010734 
L 200.511113 126.693913 
L 201.019402 126.37737 
L 201.527692 126.061103 
L 202.035981 125.745114 
L 202.54427 125.429402 
L 203.05256 125.113969 
L 203.560849 124.798813 
L 204.069138 124.483936 
L 204.577428 124.169336 
L 205.085717 123.855014 
L 205.594006 123.54097 
L 206.102296 123.227204 
L 206.610585 122.913715 
L 207.118874 122.600504 
L 207.627163 122.287568 
L 208.135453 121.974909 
L 208.643742 121.662524 
L 209.152031 121.350412 
L 209.660321 121.038573 
L 210.16861 120.727006 
L 210.676899 120.415709 
L 211.185189 120.104682 
L 211.693478 119.793923 
L 212.201767 119.483431 
L 212.710056 119.173206 
L 213.218346 118.863245 
L 213.726635 118.553548 
L 214.234924 118.244113 
L 214.743214 117.93494 
L 215.251503 117.626026 
L 215.759792 117.317371 
L 216.268082 117.008973 
L 216.776371 116.700831 
L 217.28466 116.392943 
L 217.79295 116.085308 
L 218.301239 115.777925 
L 218.809528 115.470792 
L 219.317817 115.163908 
L 219.826107 114.857272 
L 220.334396 114.550881 
L 220.842685 114.244735 
L 221.350975 113.938833 
L 221.859264 113.633173 
L 222.367553 113.327757 
L 222.875843 113.022597 
L 223.384132 112.717706 
L 223.892421 112.413096 
L 224.400711 112.108782 
L 224.909 111.804777 
L 225.417289 111.501094 
L 225.925578 111.197748 
L 226.433868 110.89475 
L 226.942157 110.592117 
L 227.450446 110.289861 
L 227.958736 109.987996 
L 228.467025 109.686537 
L 228.975314 109.385497 
L 229.483604 109.084891 
L 229.991893 108.784734 
L 230.500182 108.48504 
L 231.008471 108.185822 
L 231.516761 107.887097 
L 232.02505 107.588879 
L 232.533339 107.291182 
L 233.041629 106.994021 
L 233.549918 106.697412 
L 234.058207 106.401371 
L 234.566497 106.105911 
L 235.074786 105.811049 
L 235.583075 105.5168 
L 236.091365 105.22318 
L 236.599654 104.930205 
L 237.107943 104.637891 
L 237.616232 104.346252 
L 238.124522 104.055305 
L 238.632811 103.765063 
L 239.1411 103.475541 
L 239.64939 103.186755 
L 240.157679 102.898721 
L 240.665968 102.611454 
L 241.174258 102.324969 
L 241.682547 102.039282 
L 242.190836 101.754409 
L 242.699126 101.470367 
L 243.207415 101.187171 
L 243.715704 100.904837 
L 244.223993 100.623382 
L 244.732283 100.342822 
L 245.240572 100.063174 
L 245.748861 99.784454 
L 246.257151 99.506678 
L 246.76544 99.229865 
L 247.273729 98.95403 
L 247.782019 98.67919 
L 248.290308 98.405363 
L 248.798597 98.132564 
L 249.306887 97.860812 
L 249.815176 97.590124 
L 250.323465 97.320516 
L 250.831754 97.052006 
L 251.340044 96.784611 
L 251.848333 96.518349 
L 252.356622 96.253237 
L 252.864912 95.989292 
L 253.373201 95.726531 
L 253.88149 95.464973 
L 254.38978 95.204634 
L 254.898069 94.945532 
L 255.406358 94.687684 
L 255.914647 94.431107 
L 256.422937 94.175818 
L 256.931226 93.921833 
L 257.439515 93.66917 
L 257.947805 93.417844 
L 258.456094 93.167873 
L 258.964383 92.919272 
L 259.472673 92.672057 
L 259.980962 92.426244 
L 260.489251 92.181848 
L 260.997541 91.938885 
L 261.50583 91.697369 
L 262.014119 91.457315 
L 262.522408 91.218738 
L 263.030698 90.981651 
L 263.538987 90.746069 
L 264.047276 90.512004 
L 264.555566 90.279471 
L 265.063855 90.048481 
L 265.572144 89.819047 
L 266.080434 89.591182 
L 266.588723 89.364897 
L 267.097012 89.140204 
L 267.605302 88.917114 
L 268.113591 88.695636 
L 268.62188 88.475783 
L 269.130169 88.257562 
L 269.638459 88.040984 
L 270.146748 87.826056 
L 270.655037 87.612787 
L 271.163327 87.401183 
L 271.671616 87.191252 
L 272.179905 86.983 
L 272.688195 86.776432 
L 273.196484 86.571554 
L 273.704773 86.368369 
L 274.213062 86.166881 
L 274.721352 85.967093 
L 275.229641 85.769009 
L 275.73793 85.572629 
L 276.24622 85.377954 
L 276.754509 85.184986 
L 277.262798 84.993725 
L 277.771088 84.804169 
L 278.279377 84.616319 
L 278.787666 84.43017 
L 279.295956 84.245723 
L 279.804245 84.062973 
L 280.312534 83.881916 
L 280.820823 83.70255 
L 281.329113 83.524869 
L 281.837402 83.348869 
L 282.345691 83.174541 
L 282.853981 83.001879 
L 283.36227 82.830873 
L 283.870559 82.661515 
L 284.378849 82.493795 
L 284.887138 82.327702 
L 285.395427 82.163226 
L 285.903717 82.000356 
L 286.412006 81.839081 
L 286.920295 81.679387 
L 287.428584 81.521262 
L 287.936874 81.364694 
L 288.445163 81.209668 
L 288.953452 81.056171 
L 289.461742 80.904189 
L 289.970031 80.753705 
L 290.47832 80.604706 
L 290.98661 80.457176 
L 291.494899 80.311098 
L 292.003188 80.166457 
L 292.511478 80.023235 
L 293.019767 79.881417 
L 293.528056 79.740983 
L 294.036345 79.601918 
L 294.544635 79.464203 
L 295.052924 79.327819 
L 295.561213 79.192749 
L 296.069503 79.058974 
L 296.577792 78.926475 
L 297.086081 78.795231 
L 297.594371 78.665218 
L 298.10266 78.536413 
L 298.610949 78.408792 
L 299.119238 78.282331 
L 299.627528 78.157006 
L 300.135817 78.032793 
L 300.644106 77.909668 
L 301.152396 77.787607 
L 301.660685 77.666586 
L 302.168974 77.546581 
L 302.677264 77.427568 
L 303.185553 77.309522 
L 303.693842 77.192421 
L 304.202132 77.076238 
L 304.710421 76.960951 
L 305.21871 76.846535 
L 305.726999 76.732967 
L 306.235289 76.620221 
L 306.743578 76.508274 
L 307.251867 76.397102 
L 307.760157 76.286681 
L 308.268446 76.176986 
L 308.776735 76.067994 
L 309.285025 75.95968 
L 309.793314 75.852022 
L 310.301603 75.744993 
L 310.809893 75.638572 
L 311.318182 75.532733 
L 311.318182 41.85 
L 311.318182 41.85 
L 310.809893 42.186397 
L 310.301603 42.52239 
L 309.793314 42.857976 
L 309.285025 43.193155 
L 308.776735 43.527926 
L 308.268446 43.862287 
L 307.760157 44.196237 
L 307.251867 44.529775 
L 306.743578 44.8629 
L 306.235289 45.19561 
L 305.726999 45.527903 
L 305.21871 45.85978 
L 304.710421 46.191237 
L 304.202132 46.522275 
L 303.693842 46.852891 
L 303.185553 47.183085 
L 302.677264 47.512854 
L 302.168974 47.842198 
L 301.660685 48.171116 
L 301.152396 48.499605 
L 300.644106 48.827665 
L 300.135817 49.155294 
L 299.627528 49.482492 
L 299.119238 49.809256 
L 298.610949 50.135586 
L 298.10266 50.461481 
L 297.594371 50.78694 
L 297.086081 51.111961 
L 296.577792 51.436543 
L 296.069503 51.760685 
L 295.561213 52.084382 
L 295.052924 52.407623 
L 294.544635 52.730402 
L 294.036345 53.052708 
L 293.528056 53.374533 
L 293.019767 53.695871 
L 292.511478 54.016712 
L 292.003188 54.337051 
L 291.494899 54.656878 
L 290.98661 54.976189 
L 290.47832 55.294976 
L 289.970031 55.613233 
L 289.461742 55.930954 
L 288.953452 56.248136 
L 288.445163 56.564771 
L 287.936874 56.880856 
L 287.428584 57.196387 
L 286.920295 57.511361 
L 286.412006 57.825773 
L 285.903717 58.139621 
L 285.395427 58.452903 
L 284.887138 58.765618 
L 284.378849 59.077763 
L 283.870559 59.389338 
L 283.36227 59.700343 
L 282.853981 60.010777 
L 282.345691 60.320643 
L 281.837402 60.62994 
L 281.329113 60.938672 
L 280.820823 61.246838 
L 280.312534 61.554438 
L 279.804245 61.861472 
L 279.295956 62.16794 
L 278.787666 62.473843 
L 278.279377 62.77918 
L 277.771088 63.083956 
L 277.262798 63.38817 
L 276.754509 63.691828 
L 276.24622 63.994932 
L 275.73793 64.297486 
L 275.229641 64.599495 
L 274.721352 64.900964 
L 274.213062 65.2019 
L 273.704773 65.502309 
L 273.196484 65.802198 
L 272.688195 66.101575 
L 272.179905 66.400448 
L 271.671616 66.698827 
L 271.163327 66.996722 
L 270.655037 67.294142 
L 270.146748 67.591098 
L 269.638459 67.887603 
L 269.130169 68.183667 
L 268.62188 68.479304 
L 268.113591 68.774526 
L 267.605302 69.069349 
L 267.097012 69.363784 
L 266.588723 69.657849 
L 266.080434 69.951556 
L 265.572144 70.244919 
L 265.063855 70.537947 
L 264.555566 70.830653 
L 264.047276 71.123048 
L 263.538987 71.415144 
L 263.030698 71.706955 
L 262.522408 71.998492 
L 262.014119 72.289769 
L 261.50583 72.580799 
L 260.997541 72.871597 
L 260.489251 73.162175 
L 259.980962 73.452549 
L 259.472673 73.742732 
L 258.964383 74.03274 
L 258.456094 74.322588 
L 257.947805 74.612291 
L 257.439515 74.901864 
L 256.931226 75.191323 
L 256.422937 75.480684 
L 255.914647 75.769962 
L 255.406358 76.059175 
L 254.898069 76.348338 
L 254.38978 76.637468 
L 253.88149 76.92658 
L 253.373201 77.215693 
L 252.864912 77.504822 
L 252.356622 77.793984 
L 251.848333 78.083196 
L 251.340044 78.372475 
L 250.831754 78.661833 
L 250.323465 78.951282 
L 249.815176 79.240833 
L 249.306887 79.530495 
L 248.798597 79.820279 
L 248.290308 80.110196 
L 247.782019 80.400256 
L 247.273729 80.69047 
L 246.76544 80.980848 
L 246.257151 81.271399 
L 245.748861 81.562135 
L 245.240572 81.853065 
L 244.732283 82.144199 
L 244.223993 82.435548 
L 243.715704 82.72712 
L 243.207415 83.018927 
L 242.699126 83.310976 
L 242.190836 83.603279 
L 241.682547 83.895844 
L 241.174258 84.18868 
L 240.665968 84.481798 
L 240.157679 84.775206 
L 239.64939 85.068912 
L 239.1411 85.362927 
L 238.632811 85.657258 
L 238.124522 85.951915 
L 237.616232 86.246905 
L 237.107943 86.542237 
L 236.599654 86.837919 
L 236.091365 87.133957 
L 235.583075 87.43035 
L 235.074786 87.727099 
L 234.566497 88.024203 
L 234.058207 88.321661 
L 233.549918 88.619472 
L 233.041629 88.917636 
L 232.533339 89.216151 
L 232.02505 89.515016 
L 231.516761 89.81423 
L 231.008471 90.113791 
L 230.500182 90.413697 
L 229.991893 90.713948 
L 229.483604 91.014541 
L 228.975314 91.315475 
L 228.467025 91.616747 
L 227.958736 91.918356 
L 227.450446 92.220299 
L 226.942157 92.522575 
L 226.433868 92.82518 
L 225.925578 93.128113 
L 225.417289 93.431371 
L 224.909 93.734952 
L 224.400711 94.038852 
L 223.892421 94.343069 
L 223.384132 94.647601 
L 222.875843 94.952444 
L 222.367553 95.257595 
L 221.859264 95.563051 
L 221.350975 95.868809 
L 220.842685 96.174872 
L 220.334396 96.481245 
L 219.826107 96.78793 
L 219.317817 97.094932 
L 218.809528 97.402255 
L 218.301239 97.709903 
L 217.79295 98.01788 
L 217.28466 98.326189 
L 216.776371 98.634835 
L 216.268082 98.94382 
L 215.759792 99.253151 
L 215.251503 99.562829 
L 214.743214 99.87286 
L 214.234924 100.183246 
L 213.726635 100.493993 
L 213.218346 100.805103 
L 212.710056 101.116582 
L 212.201767 101.428433 
L 211.693478 101.740661 
L 211.185189 102.053269 
L 210.676899 102.366261 
L 210.16861 102.679643 
L 209.660321 102.993417 
L 209.152031 103.307589 
L 208.643742 103.622163 
L 208.135453 103.937142 
L 207.627163 104.252531 
L 207.118874 104.568335 
L 206.610585 104.884558 
L 206.102296 105.2012 
L 205.594006 105.518259 
L 205.085717 105.835733 
L 204.577428 106.15362 
L 204.069138 106.471917 
L 203.560849 106.790622 
L 203.05256 107.109733 
L 202.54427 107.429247 
L 202.035981 107.749164 
L 201.527692 108.069481 
L 201.019402 108.390195 
L 200.511113 108.711306 
L 200.002824 109.032811 
L 199.494535 109.354709 
L 198.986245 109.676999 
L 198.477956 109.999678 
L 197.969667 110.322746 
L 197.461377 110.6462 
L 196.953088 110.970041 
L 196.444799 111.294266 
L 195.936509 111.618874 
L 195.42822 111.943865 
L 194.919931 112.269237 
L 194.411641 112.594989 
L 193.903352 112.921121 
L 193.395063 113.247631 
L 192.886774 113.574518 
L 192.378484 113.901783 
L 191.870195 114.229423 
L 191.361906 114.557434 
L 190.853616 114.885803 
L 190.345327 115.214515 
L 189.837038 115.543553 
L 189.328748 115.872904 
L 188.820459 116.202553 
L 188.31217 116.532483 
L 187.80388 116.862681 
L 187.295591 117.19313 
L 186.787302 117.523817 
L 186.279013 117.854726 
L 185.770723 118.185842 
L 185.262434 118.51715 
L 184.754145 118.848635 
L 184.245855 119.180282 
L 183.737566 119.512077 
L 183.229277 119.844004 
L 182.720987 120.176048 
L 182.212698 120.508196 
L 181.704409 120.840431 
L 181.19612 121.172739 
L 180.68783 121.505105 
L 180.179541 121.837514 
L 179.671252 122.169952 
L 179.162962 122.502403 
L 178.654673 122.834853 
L 178.146384 123.167287 
L 177.638094 123.499689 
L 177.129805 123.832045 
L 176.621516 124.16434 
L 176.113226 124.496562 
L 175.604937 124.8287 
L 175.096648 125.160742 
L 174.588359 125.492677 
L 174.080069 125.824495 
L 173.57178 126.156183 
L 173.063491 126.48773 
L 172.555201 126.819125 
L 172.046912 127.150356 
L 171.538623 127.481411 
L 171.030333 127.812279 
L 170.522044 128.142949 
L 170.013755 128.473408 
L 169.505465 128.803644 
L 168.997176 129.133646 
L 168.488887 129.463403 
L 167.980598 129.792901 
L 167.472308 130.122129 
L 166.964019 130.451075 
L 166.45573 130.779728 
L 165.94744 131.108074 
L 165.439151 131.436102 
L 164.930862 131.7638 
L 164.422572 132.091156 
L 163.914283 132.418156 
L 163.405994 132.744789 
L 162.897704 133.071042 
L 162.389415 133.396903 
L 161.881126 133.72236 
L 161.372837 134.047397 
L 160.864547 134.372002 
L 160.356258 134.69616 
L 159.847969 135.019856 
L 159.339679 135.343075 
L 158.83139 135.665803 
L 158.323101 135.988025 
L 157.814811 136.309726 
L 157.306522 136.630891 
L 156.798233 136.951506 
L 156.289944 137.271554 
L 155.781654 137.591021 
L 155.273365 137.909891 
L 154.765076 138.228151 
L 154.256786 138.545784 
L 153.748497 138.862775 
L 153.240208 139.179109 
L 152.731918 139.494771 
L 152.223629 139.809746 
L 151.71534 140.124018 
L 151.20705 140.437573 
L 150.698761 140.750395 
L 150.190472 141.062469 
L 149.682183 141.373779 
L 149.173893 141.684311 
L 148.665604 141.99405 
L 148.157315 142.30298 
L 147.649025 142.611086 
L 147.140736 142.918353 
L 146.632447 143.224767 
L 146.124157 143.530314 
L 145.615868 143.834981 
L 145.107579 144.138755 
L 144.599289 144.441624 
L 144.091 144.743574 
L 143.582711 145.044592 
L 143.074422 145.344667 
L 142.566132 145.643787 
L 142.057843 145.941938 
L 141.549554 146.239109 
L 141.041264 146.535289 
L 140.532975 146.830465 
L 140.024686 147.124627 
L 139.516396 147.417763 
L 139.008107 147.709863 
L 138.499818 148.000916 
L 137.991529 148.290912 
L 137.483239 148.579841 
L 136.97495 148.867692 
L 136.466661 149.154458 
L 135.958371 149.440127 
L 135.450082 149.724693 
L 134.941793 150.008145 
L 134.433503 150.290476 
L 133.925214 150.571677 
L 133.416925 150.851742 
L 132.908635 151.130662 
L 132.400346 151.408431 
L 131.892057 151.685041 
L 131.383768 151.960482 
L 130.875478 152.234745 
L 130.367189 152.507817 
L 129.8589 152.77969 
L 129.35061 153.050354 
L 128.842321 153.319799 
L 128.334032 153.588017 
L 127.825742 153.854999 
L 127.317453 154.120738 
L 126.809164 154.385227 
L 126.300874 154.648458 
L 125.792585 154.910426 
L 125.284296 155.171124 
L 124.776007 155.430548 
L 124.267717 155.688691 
L 123.759428 155.945551 
L 123.251139 156.201122 
L 122.742849 156.455402 
L 122.23456 156.708388 
L 121.726271 156.960076 
L 121.217981 157.210466 
L 120.709692 157.459554 
L 120.201403 157.707341 
L 119.693113 157.953826 
L 119.184824 158.199007 
L 118.676535 158.442886 
L 118.168246 158.685462 
L 117.659956 158.926737 
L 117.151667 159.166712 
L 116.643378 159.405389 
L 116.135088 159.642775 
L 115.626799 159.878876 
L 115.11851 160.113697 
L 114.61022 160.347246 
L 114.101931 160.57953 
L 113.593642 160.810556 
L 113.085353 161.040332 
L 112.577063 161.268867 
L 112.068774 161.496169 
L 111.560485 161.722247 
L 111.052195 161.947111 
L 110.543906 162.170771 
L 110.035617 162.393236 
L 109.527327 162.614518 
L 109.019038 162.834626 
L 108.510749 163.053573 
L 108.002459 163.271369 
L 107.49417 163.488026 
L 106.985881 163.703556 
L 106.477592 163.917972 
L 105.969302 164.131286 
L 105.461013 164.343511 
L 104.952724 164.554659 
L 104.444434 164.764745 
L 103.936145 164.973782 
L 103.427856 165.181783 
L 102.919566 165.388763 
L 102.411277 165.594735 
L 101.902988 165.799713 
L 101.394698 166.003707 
L 100.886409 166.206729 
L 100.37812 166.408787 
L 99.869831 166.609893 
L 99.361541 166.810057 
L 98.853252 167.009289 
L 98.344963 167.2076 
L 97.836673 167.405 
L 97.328384 167.601502 
L 96.820095 167.797115 
L 96.311805 167.991851 
L 95.803516 168.185721 
L 95.295227 168.378736 
L 94.786938 168.570908 
L 94.278648 168.762247 
L 93.770359 168.952766 
L 93.26207 169.142476 
L 92.75378 169.331388 
L 92.245491 169.519515 
L 91.737202 169.706868 
L 91.228912 169.893459 
L 90.720623 170.0793 
L 90.212334 170.264403 
L 89.704044 170.44878 
L 89.195755 170.632442 
L 88.687466 170.815403 
L 88.179177 170.997674 
L 87.670887 171.179267 
L 87.162598 171.360195 
L 86.654309 171.540467 
L 86.146019 171.720095 
L 85.63773 171.899087 
L 85.129441 172.077452 
L 84.621151 172.255201 
L 84.112862 172.432343 
L 83.604573 172.608887 
L 83.096283 172.784843 
L 82.587994 172.96022 
L 82.079705 173.135028 
L 81.571416 173.309276 
L 81.063126 173.482973 
L 80.554837 173.656129 
L 80.046548 173.828753 
L 79.538258 174.000854 
L 79.029969 174.172442 
L 78.52168 174.343525 
L 78.01339 174.514114 
L 77.505101 174.684217 
L 76.996812 174.853844 
L 76.488522 175.023004 
L 75.980233 175.191705 
L 75.471944 175.359957 
L 74.963655 175.52777 
L 74.455365 175.695152 
L 73.947076 175.862112 
L 73.438787 176.02866 
L 72.930497 176.194804 
L 72.422208 176.360554 
L 71.913919 176.525917 
L 71.405629 176.690902 
L 70.89734 176.855514 
L 70.389051 177.019761 
L 69.880762 177.18365 
L 69.372472 177.347186 
L 68.864183 177.510378 
L 68.355894 177.67323 
L 67.847604 177.835751 
L 67.339315 177.997946 
L 66.831026 178.159821 
L 66.322736 178.321383 
L 65.814447 178.482639 
L 65.306158 178.643594 
L 64.797868 178.804254 
L 64.289579 178.964625 
L 63.78129 179.124714 
L 63.273001 179.284526 
L 62.764711 179.444067 
L 62.256422 179.603344 
L 61.748133 179.762361 
L 61.239843 179.921124 
L 60.731554 180.07964 
L 60.223265 180.237913 
L 59.714975 180.395949 
L 59.206686 180.553755 
L 58.698397 180.711334 
L 58.190107 180.868693 
L 57.681818 181.025837 
z
" clip-path="url(#p9e4d9ad8f0)" style="fill: #7f7f7f; fill-opacity: 0.15"/>
   </g>
   <g id="matplotlib.axis_1">
    <g id="xtick_1">
     <g id="line2d_1">
      <path d="M 62.884615 240.3 
L 62.884615 32.4 
" clip-path="url(#p9e4d9ad8f0)" style="fill: none; stroke-dasharray: 2.96,1.28; stroke-dashoffset: 0; stroke: #b0b0b0; stroke-opacity: 0.5; stroke-width: 0.8"/>
     </g>
     <g id="line2d_2">
      <defs>
       <path id="m9906d5f518" d="M 0 0 
L 0 3.5 
" style="stroke: #000000; stroke-width: 0.8"/>
      </defs>
      <g>
       <use xlink:href="#m9906d5f518" x="62.884615" y="240.3" style="stroke: #000000; stroke-width: 0.8"/>
      </g>
     </g>
     <g id="text_1">
      <!-- 6 -->
      <g transform="translate(59.703365 254.898438) scale(0.1 -0.1)">
       <defs>
        <path id="DejaVuSans-36" d="M 2113 2584 
Q 1688 2584 1439 2293 
Q 1191 2003 1191 1497 
Q 1191 994 1439 701 
Q 1688 409 2113 409 
Q 2538 409 2786 701 
Q 3034 994 3034 1497 
Q 3034 2003 2786 2293 
Q 2538 2584 2113 2584 
z
M 3366 4563 
L 3366 3988 
Q 3128 4100 2886 4159 
Q 2644 4219 2406 4219 
Q 1781 4219 1451 3797 
Q 1122 3375 1075 2522 
Q 1259 2794 1537 2939 
Q 1816 3084 2150 3084 
Q 2853 3084 3261 2657 
Q 3669 2231 3669 1497 
Q 3669 778 3244 343 
Q 2819 -91 2113 -91 
Q 1303 -91 875 529 
Q 447 1150 447 2328 
Q 447 3434 972 4092 
Q 1497 4750 2381 4750 
Q 2619 4750 2861 4703 
Q 3103 4656 3366 4563 
z
" transform="scale(0.015625)"/>
       </defs>
       <use xlink:href="#DejaVuSans-36"/>
      </g>
     </g>
    </g>
    <g id="xtick_2">
     <g id="line2d_3">
      <path d="M 94.101399 240.3 
L 94.101399 32.4 
" clip-path="url(#p9e4d9ad8f0)" style="fill: none; stroke-dasharray: 2.96,1.28; stroke-dashoffset: 0; stroke: #b0b0b0; stroke-opacity: 0.5; stroke-width: 0.8"/>
     </g>
     <g id="line2d_4">
      <g>
       <use xlink:href="#m9906d5f518" x="94.101399" y="240.3" style="stroke: #000000; stroke-width: 0.8"/>
      </g>
     </g>
     <g id="text_2">
      <!-- 8 -->
      <g transform="translate(90.920149 254.898438) scale(0.1 -0.1)">
       <defs>
        <path id="DejaVuSans-38" d="M 2034 2216 
Q 1584 2216 1326 1975 
Q 1069 1734 1069 1313 
Q 1069 891 1326 650 
Q 1584 409 2034 409 
Q 2484 409 2743 651 
Q 3003 894 3003 1313 
Q 3003 1734 2745 1975 
Q 2488 2216 2034 2216 
z
M 1403 2484 
Q 997 2584 770 2862 
Q 544 3141 544 3541 
Q 544 4100 942 4425 
Q 1341 4750 2034 4750 
Q 2731 4750 3128 4425 
Q 3525 4100 3525 3541 
Q 3525 3141 3298 2862 
Q 3072 2584 2669 2484 
Q 3125 2378 3379 2068 
Q 3634 1759 3634 1313 
Q 3634 634 3220 271 
Q 2806 -91 2034 -91 
Q 1263 -91 848 271 
Q 434 634 434 1313 
Q 434 1759 690 2068 
Q 947 2378 1403 2484 
z
M 1172 3481 
Q 1172 3119 1398 2916 
Q 1625 2713 2034 2713 
Q 2441 2713 2670 2916 
Q 2900 3119 2900 3481 
Q 2900 3844 2670 4047 
Q 2441 4250 2034 4250 
Q 1625 4250 1398 4047 
Q 1172 3844 1172 3481 
z
" transform="scale(0.015625)"/>
       </defs>
       <use xlink:href="#DejaVuSans-38"/>
      </g>
     </g>
    </g>
    <g id="xtick_3">
     <g id="line2d_5">
      <path d="M 125.318182 240.3 
L 125.318182 32.4 
" clip-path="url(#p9e4d9ad8f0)" style="fill: none; stroke-dasharray: 2.96,1.28; stroke-dashoffset: 0; stroke: #b0b0b0; stroke-opacity: 0.5; stroke-width: 0.8"/>
     </g>
     <g id="line2d_6">
      <g>
       <use xlink:href="#m9906d5f518" x="125.318182" y="240.3" style="stroke: #000000; stroke-width: 0.8"/>
      </g>
     </g>
     <g id="text_3">
      <!-- 10 -->
      <g transform="translate(118.955682 254.898438) scale(0.1 -0.1)">
       <defs>
        <path id="DejaVuSans-31" d="M 794 531 
L 1825 531 
L 1825 4091 
L 703 3866 
L 703 4441 
L 1819 4666 
L 2450 4666 
L 2450 531 
L 3481 531 
L 3481 0 
L 794 0 
L 794 531 
z
" transform="scale(0.015625)"/>
        <path id="DejaVuSans-30" d="M 2034 4250 
Q 1547 4250 1301 3770 
Q 1056 3291 1056 2328 
Q 1056 1369 1301 889 
Q 1547 409 2034 409 
Q 2525 409 2770 889 
Q 3016 1369 3016 2328 
Q 3016 3291 2770 3770 
Q 2525 4250 2034 4250 
z
M 2034 4750 
Q 2819 4750 3233 4129 
Q 3647 3509 3647 2328 
Q 3647 1150 3233 529 
Q 2819 -91 2034 -91 
Q 1250 -91 836 529 
Q 422 1150 422 2328 
Q 422 3509 836 4129 
Q 1250 4750 2034 4750 
z
" transform="scale(0.015625)"/>
       </defs>
       <use xlink:href="#DejaVuSans-31"/>
       <use xlink:href="#DejaVuSans-30" transform="translate(63.623047 0)"/>
      </g>
     </g>
    </g>
    <g id="xtick_4">
     <g id="line2d_7">
      <path d="M 156.534965 240.3 
L 156.534965 32.4 
" clip-path="url(#p9e4d9ad8f0)" style="fill: none; stroke-dasharray: 2.96,1.28; stroke-dashoffset: 0; stroke: #b0b0b0; stroke-opacity: 0.5; stroke-width: 0.8"/>
     </g>
     <g id="line2d_8">
      <g>
       <use xlink:href="#m9906d5f518" x="156.534965" y="240.3" style="stroke: #000000; stroke-width: 0.8"/>
      </g>
     </g>
     <g id="text_4">
      <!-- 12 -->
      <g transform="translate(150.172465 254.898438) scale(0.1 -0.1)">
       <defs>
        <path id="DejaVuSans-32" d="M 1228 531 
L 3431 531 
L 3431 0 
L 469 0 
L 469 531 
Q 828 903 1448 1529 
Q 2069 2156 2228 2338 
Q 2531 2678 2651 2914 
Q 2772 3150 2772 3378 
Q 2772 3750 2511 3984 
Q 2250 4219 1831 4219 
Q 1534 4219 1204 4116 
Q 875 4013 500 3803 
L 500 4441 
Q 881 4594 1212 4672 
Q 1544 4750 1819 4750 
Q 2544 4750 2975 4387 
Q 3406 4025 3406 3419 
Q 3406 3131 3298 2873 
Q 3191 2616 2906 2266 
Q 2828 2175 2409 1742 
Q 1991 1309 1228 531 
z
" transform="scale(0.015625)"/>
       </defs>
       <use xlink:href="#DejaVuSans-31"/>
       <use xlink:href="#DejaVuSans-32" transform="translate(63.623047 0)"/>
      </g>
     </g>
    </g>
    <g id="xtick_5">
     <g id="line2d_9">
      <path d="M 187.751748 240.3 
L 187.751748 32.4 
" clip-path="url(#p9e4d9ad8f0)" style="fill: none; stroke-dasharray: 2.96,1.28; stroke-dashoffset: 0; stroke: #b0b0b0; stroke-opacity: 0.5; stroke-width: 0.8"/>
     </g>
     <g id="line2d_10">
      <g>
       <use xlink:href="#m9906d5f518" x="187.751748" y="240.3" style="stroke: #000000; stroke-width: 0.8"/>
      </g>
     </g>
     <g id="text_5">
      <!-- 14 -->
      <g transform="translate(181.389248 254.898438) scale(0.1 -0.1)">
       <defs>
        <path id="DejaVuSans-34" d="M 2419 4116 
L 825 1625 
L 2419 1625 
L 2419 4116 
z
M 2253 4666 
L 3047 4666 
L 3047 1625 
L 3713 1625 
L 3713 1100 
L 3047 1100 
L 3047 0 
L 2419 0 
L 2419 1100 
L 313 1100 
L 313 1709 
L 2253 4666 
z
" transform="scale(0.015625)"/>
       </defs>
       <use xlink:href="#DejaVuSans-31"/>
       <use xlink:href="#DejaVuSans-34" transform="translate(63.623047 0)"/>
      </g>
     </g>
    </g>
    <g id="xtick_6">
     <g id="line2d_11">
      <path d="M 218.968531 240.3 
L 218.968531 32.4 
" clip-path="url(#p9e4d9ad8f0)" style="fill: none; stroke-dasharray: 2.96,1.28; stroke-dashoffset: 0; stroke: #b0b0b0; stroke-opacity: 0.5; stroke-width: 0.8"/>
     </g>
     <g id="line2d_12">
      <g>
       <use xlink:href="#m9906d5f518" x="218.968531" y="240.3" style="stroke: #000000; stroke-width: 0.8"/>
      </g>
     </g>
     <g id="text_6">
      <!-- 16 -->
      <g transform="translate(212.606031 254.898438) scale(0.1 -0.1)">
       <use xlink:href="#DejaVuSans-31"/>
       <use xlink:href="#DejaVuSans-36" transform="translate(63.623047 0)"/>
      </g>
     </g>
    </g>
    <g id="xtick_7">
     <g id="line2d_13">
      <path d="M 250.185315 240.3 
L 250.185315 32.4 
" clip-path="url(#p9e4d9ad8f0)" style="fill: none; stroke-dasharray: 2.96,1.28; stroke-dashoffset: 0; stroke: #b0b0b0; stroke-opacity: 0.5; stroke-width: 0.8"/>
     </g>
     <g id="line2d_14">
      <g>
       <use xlink:href="#m9906d5f518" x="250.185315" y="240.3" style="stroke: #000000; stroke-width: 0.8"/>
      </g>
     </g>
     <g id="text_7">
      <!-- 18 -->
      <g transform="translate(243.822815 254.898438) scale(0.1 -0.1)">
       <use xlink:href="#DejaVuSans-31"/>
       <use xlink:href="#DejaVuSans-38" transform="translate(63.623047 0)"/>
      </g>
     </g>
    </g>
    <g id="xtick_8">
     <g id="line2d_15">
      <path d="M 281.402098 240.3 
L 281.402098 32.4 
" clip-path="url(#p9e4d9ad8f0)" style="fill: none; stroke-dasharray: 2.96,1.28; stroke-dashoffset: 0; stroke: #b0b0b0; stroke-opacity: 0.5; stroke-width: 0.8"/>
     </g>
     <g id="line2d_16">
      <g>
       <use xlink:href="#m9906d5f518" x="281.402098" y="240.3" style="stroke: #000000; stroke-width: 0.8"/>
      </g>
     </g>
     <g id="text_8">
      <!-- 20 -->
      <g transform="translate(275.039598 254.898438) scale(0.1 -0.1)">
       <use xlink:href="#DejaVuSans-32"/>
       <use xlink:href="#DejaVuSans-30" transform="translate(63.623047 0)"/>
      </g>
     </g>
    </g>
    <g id="xtick_9">
     <g id="line2d_17">
      <path d="M 312.618881 240.3 
L 312.618881 32.4 
" clip-path="url(#p9e4d9ad8f0)" style="fill: none; stroke-dasharray: 2.96,1.28; stroke-dashoffset: 0; stroke: #b0b0b0; stroke-opacity: 0.5; stroke-width: 0.8"/>
     </g>
     <g id="line2d_18">
      <g>
       <use xlink:href="#m9906d5f518" x="312.618881" y="240.3" style="stroke: #000000; stroke-width: 0.8"/>
      </g>
     </g>
     <g id="text_9">
      <!-- 22 -->
      <g transform="translate(306.256381 254.898438) scale(0.1 -0.1)">
       <use xlink:href="#DejaVuSans-32"/>
       <use xlink:href="#DejaVuSans-32" transform="translate(63.623047 0)"/>
      </g>
     </g>
    </g>
    <g id="text_10">
     <!-- Age -->
     <g transform="translate(174.828906 268.576563) scale(0.1 -0.1)">
      <defs>
       <path id="DejaVuSans-41" d="M 2188 4044 
L 1331 1722 
L 3047 1722 
L 2188 4044 
z
M 1831 4666 
L 2547 4666 
L 4325 0 
L 3669 0 
L 3244 1197 
L 1141 1197 
L 716 0 
L 50 0 
L 1831 4666 
z
" transform="scale(0.015625)"/>
       <path id="DejaVuSans-67" d="M 2906 1791 
Q 2906 2416 2648 2759 
Q 2391 3103 1925 3103 
Q 1463 3103 1205 2759 
Q 947 2416 947 1791 
Q 947 1169 1205 825 
Q 1463 481 1925 481 
Q 2391 481 2648 825 
Q 2906 1169 2906 1791 
z
M 3481 434 
Q 3481 -459 3084 -895 
Q 2688 -1331 1869 -1331 
Q 1566 -1331 1297 -1286 
Q 1028 -1241 775 -1147 
L 775 -588 
Q 1028 -725 1275 -790 
Q 1522 -856 1778 -856 
Q 2344 -856 2625 -561 
Q 2906 -266 2906 331 
L 2906 616 
Q 2728 306 2450 153 
Q 2172 0 1784 0 
Q 1141 0 747 490 
Q 353 981 353 1791 
Q 353 2603 747 3093 
Q 1141 3584 1784 3584 
Q 2172 3584 2450 3431 
Q 2728 3278 2906 2969 
L 2906 3500 
L 3481 3500 
L 3481 434 
z
" transform="scale(0.015625)"/>
       <path id="DejaVuSans-65" d="M 3597 1894 
L 3597 1613 
L 953 1613 
Q 991 1019 1311 708 
Q 1631 397 2203 397 
Q 2534 397 2845 478 
Q 3156 559 3463 722 
L 3463 178 
Q 3153 47 2828 -22 
Q 2503 -91 2169 -91 
Q 1331 -91 842 396 
Q 353 884 353 1716 
Q 353 2575 817 3079 
Q 1281 3584 2069 3584 
Q 2775 3584 3186 3129 
Q 3597 2675 3597 1894 
z
M 3022 2063 
Q 3016 2534 2758 2815 
Q 2500 3097 2075 3097 
Q 1594 3097 1305 2825 
Q 1016 2553 972 2059 
L 3022 2063 
z
" transform="scale(0.015625)"/>
      </defs>
      <use xlink:href="#DejaVuSans-41"/>
      <use xlink:href="#DejaVuSans-67" transform="translate(68.408203 0)"/>
      <use xlink:href="#DejaVuSans-65" transform="translate(131.884766 0)"/>
     </g>
    </g>
   </g>
   <g id="matplotlib.axis_2">
    <g id="ytick_1">
     <g id="line2d_19">
      <path d="M 45 230.378243 
L 324 230.378243 
" clip-path="url(#p9e4d9ad8f0)" style="fill: none; stroke-dasharray: 2.96,1.28; stroke-dashoffset: 0; stroke: #b0b0b0; stroke-opacity: 0.5; stroke-width: 0.8"/>
     </g>
     <g id="line2d_20">
      <defs>
       <path id="m15e0f33065" d="M 0 0 
L -3.5 0 
" style="stroke: #000000; stroke-width: 0.8"/>
      </defs>
      <g>
       <use xlink:href="#m15e0f33065" x="45" y="230.378243" style="stroke: #000000; stroke-width: 0.8"/>
      </g>
     </g>
     <g id="text_11">
      <!-- 300 -->
      <g transform="translate(18.9125 234.177462) scale(0.1 -0.1)">
       <defs>
        <path id="DejaVuSans-33" d="M 2597 2516 
Q 3050 2419 3304 2112 
Q 3559 1806 3559 1356 
Q 3559 666 3084 287 
Q 2609 -91 1734 -91 
Q 1441 -91 1130 -33 
Q 819 25 488 141 
L 488 750 
Q 750 597 1062 519 
Q 1375 441 1716 441 
Q 2309 441 2620 675 
Q 2931 909 2931 1356 
Q 2931 1769 2642 2001 
Q 2353 2234 1838 2234 
L 1294 2234 
L 1294 2753 
L 1863 2753 
Q 2328 2753 2575 2939 
Q 2822 3125 2822 3475 
Q 2822 3834 2567 4026 
Q 2313 4219 1838 4219 
Q 1578 4219 1281 4162 
Q 984 4106 628 3988 
L 628 4550 
Q 988 4650 1302 4700 
Q 1616 4750 1894 4750 
Q 2613 4750 3031 4423 
Q 3450 4097 3450 3541 
Q 3450 3153 3228 2886 
Q 3006 2619 2597 2516 
z
" transform="scale(0.015625)"/>
       </defs>
       <use xlink:href="#DejaVuSans-33"/>
       <use xlink:href="#DejaVuSans-30" transform="translate(63.623047 0)"/>
       <use xlink:href="#DejaVuSans-30" transform="translate(127.246094 0)"/>
      </g>
     </g>
    </g>
    <g id="ytick_2">
     <g id="line2d_21">
      <path d="M 45 194.777932 
L 324 194.777932 
" clip-path="url(#p9e4d9ad8f0)" style="fill: none; stroke-dasharray: 2.96,1.28; stroke-dashoffset: 0; stroke: #b0b0b0; stroke-opacity: 0.5; stroke-width: 0.8"/>
     </g>
     <g id="line2d_22">
      <g>
       <use xlink:href="#m15e0f33065" x="45" y="194.777932" style="stroke: #000000; stroke-width: 0.8"/>
      </g>
     </g>
     <g id="text_12">
      <!-- 400 -->
      <g transform="translate(18.9125 198.57715) scale(0.1 -0.1)">
       <use xlink:href="#DejaVuSans-34"/>
       <use xlink:href="#DejaVuSans-30" transform="translate(63.623047 0)"/>
       <use xlink:href="#DejaVuSans-30" transform="translate(127.246094 0)"/>
      </g>
     </g>
    </g>
    <g id="ytick_3">
     <g id="line2d_23">
      <path d="M 45 159.17762 
L 324 159.17762 
" clip-path="url(#p9e4d9ad8f0)" style="fill: none; stroke-dasharray: 2.96,1.28; stroke-dashoffset: 0; stroke: #b0b0b0; stroke-opacity: 0.5; stroke-width: 0.8"/>
     </g>
     <g id="line2d_24">
      <g>
       <use xlink:href="#m15e0f33065" x="45" y="159.17762" style="stroke: #000000; stroke-width: 0.8"/>
      </g>
     </g>
     <g id="text_13">
      <!-- 500 -->
      <g transform="translate(18.9125 162.976839) scale(0.1 -0.1)">
       <defs>
        <path id="DejaVuSans-35" d="M 691 4666 
L 3169 4666 
L 3169 4134 
L 1269 4134 
L 1269 2991 
Q 1406 3038 1543 3061 
Q 1681 3084 1819 3084 
Q 2600 3084 3056 2656 
Q 3513 2228 3513 1497 
Q 3513 744 3044 326 
Q 2575 -91 1722 -91 
Q 1428 -91 1123 -41 
Q 819 9 494 109 
L 494 744 
Q 775 591 1075 516 
Q 1375 441 1709 441 
Q 2250 441 2565 725 
Q 2881 1009 2881 1497 
Q 2881 1984 2565 2268 
Q 2250 2553 1709 2553 
Q 1456 2553 1204 2497 
Q 953 2441 691 2322 
L 691 4666 
z
" transform="scale(0.015625)"/>
       </defs>
       <use xlink:href="#DejaVuSans-35"/>
       <use xlink:href="#DejaVuSans-30" transform="translate(63.623047 0)"/>
       <use xlink:href="#DejaVuSans-30" transform="translate(127.246094 0)"/>
      </g>
     </g>
    </g>
    <g id="ytick_4">
     <g id="line2d_25">
      <path d="M 45 123.577308 
L 324 123.577308 
" clip-path="url(#p9e4d9ad8f0)" style="fill: none; stroke-dasharray: 2.96,1.28; stroke-dashoffset: 0; stroke: #b0b0b0; stroke-opacity: 0.5; stroke-width: 0.8"/>
     </g>
     <g id="line2d_26">
      <g>
       <use xlink:href="#m15e0f33065" x="45" y="123.577308" style="stroke: #000000; stroke-width: 0.8"/>
      </g>
     </g>
     <g id="text_14">
      <!-- 600 -->
      <g transform="translate(18.9125 127.376527) scale(0.1 -0.1)">
       <use xlink:href="#DejaVuSans-36"/>
       <use xlink:href="#DejaVuSans-30" transform="translate(63.623047 0)"/>
       <use xlink:href="#DejaVuSans-30" transform="translate(127.246094 0)"/>
      </g>
     </g>
    </g>
    <g id="ytick_5">
     <g id="line2d_27">
      <path d="M 45 87.976997 
L 324 87.976997 
" clip-path="url(#p9e4d9ad8f0)" style="fill: none; stroke-dasharray: 2.96,1.28; stroke-dashoffset: 0; stroke: #b0b0b0; stroke-opacity: 0.5; stroke-width: 0.8"/>
     </g>
     <g id="line2d_28">
      <g>
       <use xlink:href="#m15e0f33065" x="45" y="87.976997" style="stroke: #000000; stroke-width: 0.8"/>
      </g>
     </g>
     <g id="text_15">
      <!-- 700 -->
      <g transform="translate(18.9125 91.776216) scale(0.1 -0.1)">
       <defs>
        <path id="DejaVuSans-37" d="M 525 4666 
L 3525 4666 
L 3525 4397 
L 1831 0 
L 1172 0 
L 2766 4134 
L 525 4134 
L 525 4666 
z
" transform="scale(0.015625)"/>
       </defs>
       <use xlink:href="#DejaVuSans-37"/>
       <use xlink:href="#DejaVuSans-30" transform="translate(63.623047 0)"/>
       <use xlink:href="#DejaVuSans-30" transform="translate(127.246094 0)"/>
      </g>
     </g>
    </g>
    <g id="ytick_6">
     <g id="line2d_29">
      <path d="M 45 52.376685 
L 324 52.376685 
" clip-path="url(#p9e4d9ad8f0)" style="fill: none; stroke-dasharray: 2.96,1.28; stroke-dashoffset: 0; stroke: #b0b0b0; stroke-opacity: 0.5; stroke-width: 0.8"/>
     </g>
     <g id="line2d_30">
      <g>
       <use xlink:href="#m15e0f33065" x="45" y="52.376685" style="stroke: #000000; stroke-width: 0.8"/>
      </g>
     </g>
     <g id="text_16">
      <!-- 800 -->
      <g transform="translate(18.9125 56.175904) scale(0.1 -0.1)">
       <use xlink:href="#DejaVuSans-38"/>
       <use xlink:href="#DejaVuSans-30" transform="translate(63.623047 0)"/>
       <use xlink:href="#DejaVuSans-30" transform="translate(127.246094 0)"/>
      </g>
     </g>
    </g>
    <g id="text_17">
     <!-- Cross-sectional area [mm$^2$] -->
     <g transform="translate(12.832812 204.95) rotate(-90) scale(0.1 -0.1)">
      <defs>
       <path id="DejaVuSans-43" d="M 4122 4306 
L 4122 3641 
Q 3803 3938 3442 4084 
Q 3081 4231 2675 4231 
Q 1875 4231 1450 3742 
Q 1025 3253 1025 2328 
Q 1025 1406 1450 917 
Q 1875 428 2675 428 
Q 3081 428 3442 575 
Q 3803 722 4122 1019 
L 4122 359 
Q 3791 134 3420 21 
Q 3050 -91 2638 -91 
Q 1578 -91 968 557 
Q 359 1206 359 2328 
Q 359 3453 968 4101 
Q 1578 4750 2638 4750 
Q 3056 4750 3426 4639 
Q 3797 4528 4122 4306 
z
" transform="scale(0.015625)"/>
       <path id="DejaVuSans-72" d="M 2631 2963 
Q 2534 3019 2420 3045 
Q 2306 3072 2169 3072 
Q 1681 3072 1420 2755 
Q 1159 2438 1159 1844 
L 1159 0 
L 581 0 
L 581 3500 
L 1159 3500 
L 1159 2956 
Q 1341 3275 1631 3429 
Q 1922 3584 2338 3584 
Q 2397 3584 2469 3576 
Q 2541 3569 2628 3553 
L 2631 2963 
z
" transform="scale(0.015625)"/>
       <path id="DejaVuSans-6f" d="M 1959 3097 
Q 1497 3097 1228 2736 
Q 959 2375 959 1747 
Q 959 1119 1226 758 
Q 1494 397 1959 397 
Q 2419 397 2687 759 
Q 2956 1122 2956 1747 
Q 2956 2369 2687 2733 
Q 2419 3097 1959 3097 
z
M 1959 3584 
Q 2709 3584 3137 3096 
Q 3566 2609 3566 1747 
Q 3566 888 3137 398 
Q 2709 -91 1959 -91 
Q 1206 -91 779 398 
Q 353 888 353 1747 
Q 353 2609 779 3096 
Q 1206 3584 1959 3584 
z
" transform="scale(0.015625)"/>
       <path id="DejaVuSans-73" d="M 2834 3397 
L 2834 2853 
Q 2591 2978 2328 3040 
Q 2066 3103 1784 3103 
Q 1356 3103 1142 2972 
Q 928 2841 928 2578 
Q 928 2378 1081 2264 
Q 1234 2150 1697 2047 
L 1894 2003 
Q 2506 1872 2764 1633 
Q 3022 1394 3022 966 
Q 3022 478 2636 193 
Q 2250 -91 1575 -91 
Q 1294 -91 989 -36 
Q 684 19 347 128 
L 347 722 
Q 666 556 975 473 
Q 1284 391 1588 391 
Q 1994 391 2212 530 
Q 2431 669 2431 922 
Q 2431 1156 2273 1281 
Q 2116 1406 1581 1522 
L 1381 1569 
Q 847 1681 609 1914 
Q 372 2147 372 2553 
Q 372 3047 722 3315 
Q 1072 3584 1716 3584 
Q 2034 3584 2315 3537 
Q 2597 3491 2834 3397 
z
" transform="scale(0.015625)"/>
       <path id="DejaVuSans-2d" d="M 313 2009 
L 1997 2009 
L 1997 1497 
L 313 1497 
L 313 2009 
z
" transform="scale(0.015625)"/>
       <path id="DejaVuSans-63" d="M 3122 3366 
L 3122 2828 
Q 2878 2963 2633 3030 
Q 2388 3097 2138 3097 
Q 1578 3097 1268 2742 
Q 959 2388 959 1747 
Q 959 1106 1268 751 
Q 1578 397 2138 397 
Q 2388 397 2633 464 
Q 2878 531 3122 666 
L 3122 134 
Q 2881 22 2623 -34 
Q 2366 -91 2075 -91 
Q 1284 -91 818 406 
Q 353 903 353 1747 
Q 353 2603 823 3093 
Q 1294 3584 2113 3584 
Q 2378 3584 2631 3529 
Q 2884 3475 3122 3366 
z
" transform="scale(0.015625)"/>
       <path id="DejaVuSans-74" d="M 1172 4494 
L 1172 3500 
L 2356 3500 
L 2356 3053 
L 1172 3053 
L 1172 1153 
Q 1172 725 1289 603 
Q 1406 481 1766 481 
L 2356 481 
L 2356 0 
L 1766 0 
Q 1100 0 847 248 
Q 594 497 594 1153 
L 594 3053 
L 172 3053 
L 172 3500 
L 594 3500 
L 594 4494 
L 1172 4494 
z
" transform="scale(0.015625)"/>
       <path id="DejaVuSans-69" d="M 603 3500 
L 1178 3500 
L 1178 0 
L 603 0 
L 603 3500 
z
M 603 4863 
L 1178 4863 
L 1178 4134 
L 603 4134 
L 603 4863 
z
" transform="scale(0.015625)"/>
       <path id="DejaVuSans-6e" d="M 3513 2113 
L 3513 0 
L 2938 0 
L 2938 2094 
Q 2938 2591 2744 2837 
Q 2550 3084 2163 3084 
Q 1697 3084 1428 2787 
Q 1159 2491 1159 1978 
L 1159 0 
L 581 0 
L 581 3500 
L 1159 3500 
L 1159 2956 
Q 1366 3272 1645 3428 
Q 1925 3584 2291 3584 
Q 2894 3584 3203 3211 
Q 3513 2838 3513 2113 
z
" transform="scale(0.015625)"/>
       <path id="DejaVuSans-61" d="M 2194 1759 
Q 1497 1759 1228 1600 
Q 959 1441 959 1056 
Q 959 750 1161 570 
Q 1363 391 1709 391 
Q 2188 391 2477 730 
Q 2766 1069 2766 1631 
L 2766 1759 
L 2194 1759 
z
M 3341 1997 
L 3341 0 
L 2766 0 
L 2766 531 
Q 2569 213 2275 61 
Q 1981 -91 1556 -91 
Q 1019 -91 701 211 
Q 384 513 384 1019 
Q 384 1609 779 1909 
Q 1175 2209 1959 2209 
L 2766 2209 
L 2766 2266 
Q 2766 2663 2505 2880 
Q 2244 3097 1772 3097 
Q 1472 3097 1187 3025 
Q 903 2953 641 2809 
L 641 3341 
Q 956 3463 1253 3523 
Q 1550 3584 1831 3584 
Q 2591 3584 2966 3190 
Q 3341 2797 3341 1997 
z
" transform="scale(0.015625)"/>
       <path id="DejaVuSans-6c" d="M 603 4863 
L 1178 4863 
L 1178 0 
L 603 0 
L 603 4863 
z
" transform="scale(0.015625)"/>
       <path id="DejaVuSans-20" transform="scale(0.015625)"/>
       <path id="DejaVuSans-5b" d="M 550 4863 
L 1875 4863 
L 1875 4416 
L 1125 4416 
L 1125 -397 
L 1875 -397 
L 1875 -844 
L 550 -844 
L 550 4863 
z
" transform="scale(0.015625)"/>
       <path id="DejaVuSans-6d" d="M 3328 2828 
Q 3544 3216 3844 3400 
Q 4144 3584 4550 3584 
Q 5097 3584 5394 3201 
Q 5691 2819 5691 2113 
L 5691 0 
L 5113 0 
L 5113 2094 
Q 5113 2597 4934 2840 
Q 4756 3084 4391 3084 
Q 3944 3084 3684 2787 
Q 3425 2491 3425 1978 
L 3425 0 
L 2847 0 
L 2847 2094 
Q 2847 2600 2669 2842 
Q 2491 3084 2119 3084 
Q 1678 3084 1418 2786 
Q 1159 2488 1159 1978 
L 1159 0 
L 581 0 
L 581 3500 
L 1159 3500 
L 1159 2956 
Q 1356 3278 1631 3431 
Q 1906 3584 2284 3584 
Q 2666 3584 2933 3390 
Q 3200 3197 3328 2828 
z
" transform="scale(0.015625)"/>
       <path id="DejaVuSans-5d" d="M 1947 4863 
L 1947 -844 
L 622 -844 
L 622 -397 
L 1369 -397 
L 1369 4416 
L 622 4416 
L 622 4863 
L 1947 4863 
z
" transform="scale(0.015625)"/>
      </defs>
      <use xlink:href="#DejaVuSans-43" transform="translate(0 0.765625)"/>
      <use xlink:href="#DejaVuSans-72" transform="translate(69.824219 0.765625)"/>
      <use xlink:href="#DejaVuSans-6f" transform="translate(110.9375 0.765625)"/>
      <use xlink:href="#DejaVuSans-73" transform="translate(172.119141 0.765625)"/>
      <use xlink:href="#DejaVuSans-73" transform="translate(224.21875 0.765625)"/>
      <use xlink:href="#DejaVuSans-2d" transform="translate(276.318359 0.765625)"/>
      <use xlink:href="#DejaVuSans-73" transform="translate(312.402344 0.765625)"/>
      <use xlink:href="#DejaVuSans-65" transform="translate(364.501953 0.765625)"/>
      <use xlink:href="#DejaVuSans-63" transform="translate(426.025391 0.765625)"/>
      <use xlink:href="#DejaVuSans-74" transform="translate(481.005859 0.765625)"/>
      <use xlink:href="#DejaVuSans-69" transform="translate(520.214844 0.765625)"/>
      <use xlink:href="#DejaVuSans-6f" transform="translate(547.998047 0.765625)"/>
      <use xlink:href="#DejaVuSans-6e" transform="translate(609.179688 0.765625)"/>
      <use xlink:href="#DejaVuSans-61" transform="translate(672.558594 0.765625)"/>
      <use xlink:href="#DejaVuSans-6c" transform="translate(733.837891 0.765625)"/>
      <use xlink:href="#DejaVuSans-20" transform="translate(761.621094 0.765625)"/>
      <use xlink:href="#DejaVuSans-61" transform="translate(793.408203 0.765625)"/>
      <use xlink:href="#DejaVuSans-72" transform="translate(854.6875 0.765625)"/>
      <use xlink:href="#DejaVuSans-65" transform="translate(895.800781 0.765625)"/>
      <use xlink:href="#DejaVuSans-61" transform="translate(957.324219 0.765625)"/>
      <use xlink:href="#DejaVuSans-20" transform="translate(1018.603516 0.765625)"/>
      <use xlink:href="#DejaVuSans-5b" transform="translate(1050.390625 0.765625)"/>
      <use xlink:href="#DejaVuSans-6d" transform="translate(1089.404297 0.765625)"/>
      <use xlink:href="#DejaVuSans-6d" transform="translate(1186.816406 0.765625)"/>
      <use xlink:href="#DejaVuSans-32" transform="translate(1285.185547 39.046875) scale(0.7)"/>
      <use xlink:href="#DejaVuSans-5d" transform="translate(1332.456055 0.765625)"/>
     </g>
    </g>
   </g>
   <g id="line2d_31">
    <path d="M 57.681818 205.937919 
L 114.61022 171.94212 
L 133.416925 160.437544 
L 151.20705 149.304268 
L 171.030333 136.610901 
L 201.019402 117.383782 
L 215.251503 108.594427 
L 230.500182 99.449368 
L 242.190836 92.678844 
L 252.864912 86.747057 
L 263.030698 81.344303 
L 273.196484 76.186876 
L 283.870559 71.025426 
L 295.052924 65.867721 
L 308.776735 59.79796 
L 311.318182 58.691366 
L 311.318182 58.691366 
" clip-path="url(#p9e4d9ad8f0)" style="fill: none; stroke: #7f7f7f; stroke-width: 2; stroke-linecap: square"/>
   </g>
   <g id="patch_3">
    <path d="M 45 240.3 
L 45 32.4 
" style="fill: none; stroke: #000000; stroke-width: 0.8; stroke-linejoin: miter; stroke-linecap: square"/>
   </g>
   <g id="patch_4">
    <path d="M 324 240.3 
L 324 32.4 
" style="fill: none; stroke: #000000; stroke-width: 0.8; stroke-linejoin: miter; stroke-linecap: square"/>
   </g>
   <g id="patch_5">
    <path d="M 45 240.3 
L 324 240.3 
" style="fill: none; stroke: #000000; stroke-width: 0.8; stroke-linejoin: miter; stroke-linecap: square"/>
   </g>
   <g id="patch_6">
    <path d="M 45 32.4 
L 324 32.4 
" style="fill: none; stroke: #000000; stroke-width: 0.8; stroke-linejoin: miter; stroke-linecap: square"/>
   </g>
  </g>
 </g>
 <defs>
  <clipPath id="p9e4d9ad8f0">
   <rect x="45" y="32.4" width="279" height="207.9"/>
  </clipPath>
 </defs>
</svg>
